<?xml version="1.0" encoding="UTF-8"?>
<svg width="64px" height="64px" viewBox="0 0 64 64" version="1.1" xmlns="http://www.w3.org/2000/svg" xmlns:xlink="http://www.w3.org/1999/xlink">
    <!-- Generator: Sketch 52.6 (67491) - http://www.bohemiancoding.com/sketch -->
    <title>ck</title>
    <desc>Created with Sketch.</desc>
    <defs>
        <ellipse id="path-1" cx="31.96416" cy="32.104065" rx="31.78496" ry="31.8647154"></ellipse>
        <path d="M55.56992,57.495935 C53.94688,56.3720325 50.57536,55.1310569 48.78336,54.6029268 L48.7552,54.5899187 C49.4664079,52.6735152 49.5507942,50.5751712 48.99584,48.6061789 L42.39872,26.796748 C42.94912,26.2165854 43.2768,25.815935 43.2768,25.815935 C44.8768,26.8565854 47.41632,25.6806504 48.448,25.1186992 C48.4970744,25.0933742 48.5223418,25.0368816 48.5088487,24.9826545 C48.4953555,24.9284275 48.4467011,24.8909317 48.39168,24.8923577 C46.36928,24.8923577 43.48928,23.297561 43.48928,23.297561 C45.79328,23.9141463 46.66112,23.2533333 46.95296,22.8943089 C46.9824736,22.8595197 46.9897896,22.810633 46.9717876,22.7684998 C46.9537857,22.7263666 46.9136426,22.6984222 46.86848,22.6965854 C46.12864,22.6627642 43.6224,22.2256911 41.79456,18.0136585 C41.53856,17.4360976 41.28256,16.8611382 40.99328,16.299187 C40.44032,15.2195122 39.53152,13.5076423 38.47936,11.8087805 L38.53056,11.5486179 L40.41728,3.67089431 C40.5307697,3.20263807 40.3447002,2.71216115 39.9512764,2.4425145 C39.5578527,2.17286784 39.0406647,2.18134285 38.656,2.46373984 L33.69216,6.1996748 L33.6128,6.29853659 L33.43104,6.17886179 C32.7752971,5.81953781 32.0789846,5.54259931 31.35744,5.35414634 L31.232,5.32292683 C31.61088,4.2302439 32.768,3.62406504 32.768,3.62406504 C31.41376,2.32325203 28.99712,4.36813008 28.99712,4.36813008 C27.59936,2.99707317 29.65248,0.431869919 29.65248,0.431869919 C27.20768,-0.697235772 25.39264,3.70731707 25.39264,3.70731707 C25.21856,1.54536585 22.14656,1.2201626 22.14656,1.2201626 C23.17056,2.3596748 22.65856,4.39934959 22.65856,4.39934959 C21.21984,2.96845528 18.48064,4.30569106 18.48064,4.30569106 C19.3513237,4.36852436 20.1699917,4.75031059 20.78464,5.3801626 L20.66944,5.41138211 C19.5947276,5.72124163 18.5848355,6.22822622 17.6896,6.90731707 L12.74624,3.78536585 C12.3472267,3.53372471 11.8368782,3.55802969 11.4627703,3.84649019 C11.0886625,4.13495068 10.92819,4.62789043 11.0592,5.08617886 L13.23008,12.8546341 L13.38624,13.4243902 C12.87424,14.6731707 12.48,15.7970732 12.26496,16.4370732 C12.12928,16.8377236 11.97824,17.217561 11.80672,17.6182114 C10.7734647,20.4048892 8.55096404,22.5639949 5.76512,23.4874797 C5.71633167,23.5043313 5.68351868,23.5508849 5.68351868,23.603252 C5.68351868,23.6556192 5.71633167,23.7021728 5.76512,23.7190244 C6.53312,23.937561 8.51456,24.3876423 9.95328,22.9125203 C9.95328,22.9125203 8.54784,24.8923577 6.81216,25.6052033 C6.76015819,25.624904 6.72874932,25.6788288 6.7367706,25.7346367 C6.74479188,25.7904445 6.79006592,25.8329863 6.84544,25.836748 C7.99211909,25.910316 9.13676271,25.6638102 10.15552,25.1239024 C9.71162842,25.7516525 9.19602563,26.3236712 8.61952,26.8279675 C8.57544661,26.8599709 8.55854061,26.9184011 8.5785535,26.969555 C8.59856638,27.0207089 8.65033548,27.0513905 8.704,27.0439024 C9.29024,26.9814634 10.00448,26.8487805 10.42176,26.5860163 L10.43968,27.0517073 C10.4576,27.5017886 10.76224,27.9804878 11.24608,28.459187 L7.2192,49.9772358 C7.01886586,51.4962978 7.18220943,53.0420572 7.69536,54.483252 L7.67232,54.4962602 C6.2336,54.844878 2.74944,56.1613008 0.70912,57.4985366 C-0.28928,58.156748 0.32768,59.6422764 1.58464,59.6188618 L11.65824,59.4185366 C11.8272,59.5252033 12.00128,59.6266667 12.17024,59.7203252 L12.17024,59.8504065 C12.1856,60.7427642 11.91424,61.4738211 11.04128,61.5206504 C10.45504,61.5492683 9.97632,61.9004878 9.88416,62.3271545 C9.70496,63.1518699 10.10432,63.8178862 10.90816,63.8881301 L14.09024,64.0806504 C15.45288,64.1832975 16.6684847,63.2150645 16.896,61.8458537 L17.08544,60.8234146 L37.21984,60.8234146 L37.3504,61.6039024 C37.5050893,62.5359276 38.1199411,63.3219017 38.97856,63.6852033 C39.2454236,63.7962537 39.5326572,63.847714 39.8208,63.8360976 L43.28704,63.7190244 C44.11648,63.6357724 44.42368,63.1180488 44.33664,62.3037398 C44.30848,62.0435772 44.10112,61.3619512 43.41248,61.3255285 C42.816,61.2917073 42.46016,60.995122 42.35264,60.4852033 C43.2215909,60.2476307 44.0526246,59.8849313 44.82048,59.4081301 L54.68928,59.603252 C55.95136,59.6422764 56.55296,58.1827642 55.56992,57.495935 Z" id="path-3"></path>
        <path d="M55.56992,57.495935 C53.94688,56.3720325 50.57536,55.1310569 48.78336,54.6029268 L48.7552,54.5899187 C49.4664079,52.6735152 49.5507942,50.5751712 48.99584,48.6061789 L42.39872,26.796748 C42.94912,26.2165854 43.2768,25.815935 43.2768,25.815935 C44.8768,26.8565854 47.41632,25.6806504 48.448,25.1186992 C48.4970744,25.0933742 48.5223418,25.0368816 48.5088487,24.9826545 C48.4953555,24.9284275 48.4467011,24.8909317 48.39168,24.8923577 C46.36928,24.8923577 43.48928,23.297561 43.48928,23.297561 C45.79328,23.9141463 46.66112,23.2533333 46.95296,22.8943089 C46.9824736,22.8595197 46.9897896,22.810633 46.9717876,22.7684998 C46.9537857,22.7263666 46.9136426,22.6984222 46.86848,22.6965854 C46.12864,22.6627642 43.6224,22.2256911 41.79456,18.0136585 C41.53856,17.4360976 41.28256,16.8611382 40.99328,16.299187 C40.44032,15.2195122 39.53152,13.5076423 38.47936,11.8087805 L38.53056,11.5486179 L40.41728,3.67089431 C40.5307697,3.20263807 40.3447002,2.71216115 39.9512764,2.4425145 C39.5578527,2.17286784 39.0406647,2.18134285 38.656,2.46373984 L33.69216,6.1996748 L33.6128,6.29853659 L33.43104,6.17886179 C32.7752971,5.81953781 32.0789846,5.54259931 31.35744,5.35414634 L31.232,5.32292683 C31.61088,4.2302439 32.768,3.62406504 32.768,3.62406504 C31.41376,2.32325203 28.99712,4.36813008 28.99712,4.36813008 C27.59936,2.99707317 29.65248,0.431869919 29.65248,0.431869919 C27.20768,-0.697235772 25.39264,3.70731707 25.39264,3.70731707 C25.21856,1.54536585 22.14656,1.2201626 22.14656,1.2201626 C23.17056,2.3596748 22.65856,4.39934959 22.65856,4.39934959 C21.21984,2.96845528 18.48064,4.30569106 18.48064,4.30569106 C19.3513237,4.36852436 20.1699917,4.75031059 20.78464,5.3801626 L20.66944,5.41138211 C19.5947276,5.72124163 18.5848355,6.22822622 17.6896,6.90731707 L12.74624,3.78536585 C12.3472267,3.53372471 11.8368782,3.55802969 11.4627703,3.84649019 C11.0886625,4.13495068 10.92819,4.62789043 11.0592,5.08617886 L13.23008,12.8546341 L13.38624,13.4243902 C12.87424,14.6731707 12.48,15.7970732 12.26496,16.4370732 C12.12928,16.8377236 11.97824,17.217561 11.80672,17.6182114 C10.7734647,20.4048892 8.55096404,22.5639949 5.76512,23.4874797 C5.71633167,23.5043313 5.68351868,23.5508849 5.68351868,23.603252 C5.68351868,23.6556192 5.71633167,23.7021728 5.76512,23.7190244 C6.53312,23.937561 8.51456,24.3876423 9.95328,22.9125203 C9.95328,22.9125203 8.54784,24.8923577 6.81216,25.6052033 C6.76015819,25.624904 6.72874932,25.6788288 6.7367706,25.7346367 C6.74479188,25.7904445 6.79006592,25.8329863 6.84544,25.836748 C7.99211909,25.910316 9.13676271,25.6638102 10.15552,25.1239024 C9.71162842,25.7516525 9.19602563,26.3236712 8.61952,26.8279675 C8.57544661,26.8599709 8.55854061,26.9184011 8.5785535,26.969555 C8.59856638,27.0207089 8.65033548,27.0513905 8.704,27.0439024 C9.29024,26.9814634 10.00448,26.8487805 10.42176,26.5860163 L10.43968,27.0517073 C10.4576,27.5017886 10.76224,27.9804878 11.24608,28.459187 L7.2192,49.9772358 C7.01886586,51.4962978 7.18220943,53.0420572 7.69536,54.483252 L7.67232,54.4962602 C6.2336,54.844878 2.74944,56.1613008 0.70912,57.4985366 C-0.28928,58.156748 0.32768,59.6422764 1.58464,59.6188618 L11.65824,59.4185366 C11.8272,59.5252033 12.00128,59.6266667 12.17024,59.7203252 L12.17024,59.8504065 C12.1856,60.7427642 11.91424,61.4738211 11.04128,61.5206504 C10.45504,61.5492683 9.97632,61.9004878 9.88416,62.3271545 C9.70496,63.1518699 10.10432,63.8178862 10.90816,63.8881301 L14.09024,64.0806504 C15.45288,64.1832975 16.6684847,63.2150645 16.896,61.8458537 L17.08544,60.8234146 L37.21984,60.8234146 L37.3504,61.6039024 C37.5050893,62.5359276 38.1199411,63.3219017 38.97856,63.6852033 C39.2454236,63.7962537 39.5326572,63.847714 39.8208,63.8360976 L43.28704,63.7190244 C44.11648,63.6357724 44.42368,63.1180488 44.33664,62.3037398 C44.30848,62.0435772 44.10112,61.3619512 43.41248,61.3255285 C42.816,61.2917073 42.46016,60.995122 42.35264,60.4852033 C43.2215909,60.2476307 44.0526246,59.8849313 44.82048,59.4081301 L54.68928,59.603252 C55.95136,59.6422764 56.55296,58.1827642 55.56992,57.495935 Z" id="path-5"></path>
        <linearGradient x1="-0.135379061%" y1="49.9420427%" x2="100%" y2="49.9420427%" id="linearGradient-7">
            <stop stop-color="#EFC95E" offset="0%"></stop>
            <stop stop-color="#C5A54D" offset="100%"></stop>
        </linearGradient>
        <linearGradient x1="-0.0309766988%" y1="49.9969746%" x2="100%" y2="49.9969746%" id="linearGradient-8">
            <stop stop-color="#EFC95E" offset="0%"></stop>
            <stop stop-color="#C5A54D" offset="100%"></stop>
        </linearGradient>
        <path d="M55.56992,57.495935 C53.94688,56.3720325 50.57536,55.1310569 48.78336,54.6029268 L48.7552,54.5899187 C49.4664079,52.6735152 49.5507942,50.5751712 48.99584,48.6061789 L42.39872,26.796748 C42.94912,26.2165854 43.2768,25.815935 43.2768,25.815935 C44.8768,26.8565854 47.41632,25.6806504 48.448,25.1186992 C48.4970744,25.0933742 48.5223418,25.0368816 48.5088487,24.9826545 C48.4953555,24.9284275 48.4467011,24.8909317 48.39168,24.8923577 C46.36928,24.8923577 43.48928,23.297561 43.48928,23.297561 C45.79328,23.9141463 46.66112,23.2533333 46.95296,22.8943089 C46.9824736,22.8595197 46.9897896,22.810633 46.9717876,22.7684998 C46.9537857,22.7263666 46.9136426,22.6984222 46.86848,22.6965854 C46.12864,22.6627642 43.6224,22.2256911 41.79456,18.0136585 C41.53856,17.4360976 41.28256,16.8611382 40.99328,16.299187 C40.44032,15.2195122 39.53152,13.5076423 38.47936,11.8087805 L38.53056,11.5486179 L40.41728,3.67089431 C40.5307697,3.20263807 40.3447002,2.71216115 39.9512764,2.4425145 C39.5578527,2.17286784 39.0406647,2.18134285 38.656,2.46373984 L33.69216,6.1996748 L33.6128,6.29853659 L33.43104,6.17886179 C32.7752971,5.81953781 32.0789846,5.54259931 31.35744,5.35414634 L31.232,5.32292683 C31.61088,4.2302439 32.768,3.62406504 32.768,3.62406504 C31.41376,2.32325203 28.99712,4.36813008 28.99712,4.36813008 C27.59936,2.99707317 29.65248,0.431869919 29.65248,0.431869919 C27.20768,-0.697235772 25.39264,3.70731707 25.39264,3.70731707 C25.21856,1.54536585 22.14656,1.2201626 22.14656,1.2201626 C23.17056,2.3596748 22.65856,4.39934959 22.65856,4.39934959 C21.21984,2.96845528 18.48064,4.30569106 18.48064,4.30569106 C19.3513237,4.36852436 20.1699917,4.75031059 20.78464,5.3801626 L20.66944,5.41138211 C19.5947276,5.72124163 18.5848355,6.22822622 17.6896,6.90731707 L12.74624,3.78536585 C12.3472267,3.53372471 11.8368782,3.55802969 11.4627703,3.84649019 C11.0886625,4.13495068 10.92819,4.62789043 11.0592,5.08617886 L13.23008,12.8546341 L13.38624,13.4243902 C12.87424,14.6731707 12.48,15.7970732 12.26496,16.4370732 C12.12928,16.8377236 11.97824,17.217561 11.80672,17.6182114 C10.7734647,20.4048892 8.55096404,22.5639949 5.76512,23.4874797 C5.71633167,23.5043313 5.68351868,23.5508849 5.68351868,23.603252 C5.68351868,23.6556192 5.71633167,23.7021728 5.76512,23.7190244 C6.53312,23.937561 8.51456,24.3876423 9.95328,22.9125203 C9.95328,22.9125203 8.54784,24.8923577 6.81216,25.6052033 C6.76015819,25.624904 6.72874932,25.6788288 6.7367706,25.7346367 C6.74479188,25.7904445 6.79006592,25.8329863 6.84544,25.836748 C7.99211909,25.910316 9.13676271,25.6638102 10.15552,25.1239024 C9.71162842,25.7516525 9.19602563,26.3236712 8.61952,26.8279675 C8.57544661,26.8599709 8.55854061,26.9184011 8.5785535,26.969555 C8.59856638,27.0207089 8.65033548,27.0513905 8.704,27.0439024 C9.29024,26.9814634 10.00448,26.8487805 10.42176,26.5860163 L10.43968,27.0517073 C10.4576,27.5017886 10.76224,27.9804878 11.24608,28.459187 L7.2192,49.9772358 C7.01886586,51.4962978 7.18220943,53.0420572 7.69536,54.483252 L7.67232,54.4962602 C6.2336,54.844878 2.74944,56.1613008 0.70912,57.4985366 C-0.28928,58.156748 0.32768,59.6422764 1.58464,59.6188618 L11.65824,59.4185366 C11.8272,59.5252033 12.00128,59.6266667 12.17024,59.7203252 L12.17024,59.8504065 C12.1856,60.7427642 11.91424,61.4738211 11.04128,61.5206504 C10.45504,61.5492683 9.97632,61.9004878 9.88416,62.3271545 C9.70496,63.1518699 10.10432,63.8178862 10.90816,63.8881301 L14.09024,64.0806504 C15.45288,64.1832975 16.6684847,63.2150645 16.896,61.8458537 L17.08544,60.8234146 L37.21984,60.8234146 L37.3504,61.6039024 C37.5050893,62.5359276 38.1199411,63.3219017 38.97856,63.6852033 C39.2454236,63.7962537 39.5326572,63.847714 39.8208,63.8360976 L43.28704,63.7190244 C44.11648,63.6357724 44.42368,63.1180488 44.33664,62.3037398 C44.30848,62.0435772 44.10112,61.3619512 43.41248,61.3255285 C42.816,61.2917073 42.46016,60.995122 42.35264,60.4852033 C43.2215909,60.2476307 44.0526246,59.8849313 44.82048,59.4081301 L54.68928,59.603252 C55.95136,59.6422764 56.55296,58.1827642 55.56992,57.495935 Z" id="path-9"></path>
        <linearGradient x1="50.0316137%" y1="100%" x2="50.0316137%" y2="0.00477304186%" id="linearGradient-11">
            <stop stop-color="#FFFFFF" stop-opacity="0" offset="0%"></stop>
            <stop stop-color="#FFFFFF" offset="72%"></stop>
        </linearGradient>
    </defs>
    <g id="ck" stroke="none" stroke-width="1" fill="none" fill-rule="evenodd">
        <g>
            <ellipse id="Oval" fill="#FFD6F7" cx="31.96416" cy="32.104065" rx="31.78496" ry="31.8647154"></ellipse>
            <g id="Clipped">
                <mask id="mask-2" fill="white">
                    <use xlink:href="#path-1"></use>
                </mask>
                <g id="Oval"></g>
                <g id="Group" mask="url(#mask-2)">
                    <g transform="translate(5.376000, 11.967480)">
                        <g id="Clipped" stroke="none" stroke-width="1" fill="none" fill-rule="evenodd" transform="translate(0.768000, 0.000000)">
                            <mask id="mask-4" fill="white">
                                <use xlink:href="#path-3"></use>
                            </mask>
                            <g id="Path"></g>
                            <g id="Group" mask="url(#mask-4)">
                                <g transform="translate(-0.256000, -5.203252)" id="Path">
                                    <polygon fill="#FFF18A" points="0.10752 0.218536585 57.48992 0.218536585 57.48992 72.1196748 0.10752 72.1196748"></polygon>
                                    <path d="M17.3696,66.497561 C17.15968,65.9382114 17.48992,64.32 18.1504,61.0835772 C18.54464,59.1479675 18.86208,57.8835772 19.05664,57.0562602 C20.52096,50.8461789 19.66592,50.1697561 20.94336,46.4702439 C21.81632,43.9414634 22.73536,41.4386992 25.13152,40.257561 C25.4208,40.1170732 27.61984,39.0790244 29.8496,39.9973984 C32.0256,40.8845528 32.9216,43.0881301 33.82528,45.44 C34.92352,48.2835772 34.57792,49.2643902 35.8272,56.3798374 L36.5952,60.8234146 C36.7488,61.6897561 36.89472,62.5613008 37.04832,63.4250407 C37.4016,65.4673171 37.40928,65.5063415 37.4016,65.5817886 C37.04576,68.5918699 19.0464,70.9697561 17.3696,66.497561 Z" fill="#FFFFFF"></path>
                                </g>
                            </g>
                        </g>
                        <g id="Clipped" stroke="none" stroke-width="1" fill="none" fill-rule="evenodd" transform="translate(0.768000, 0.000000)">
                            <mask id="mask-6" fill="white">
                                <use xlink:href="#path-5"></use>
                            </mask>
                            <g id="Path"></g>
                            <g id="Group" mask="url(#mask-6)">
                                <g transform="translate(3.584000, 3.382114)" id="Path">
                                    <path d="M17.84064,2.97365854 C14.76864,3.87902439 12.3648,7.13626016 10.96448,12.0793496 C10.55488,13.3801626 8.5248,20.0377236 8.59648,22.4494309 C8.67584,25.0796748 10.03776,26.6302439 9.78944,26.6302439 C9.5872,26.6302439 9.04704,26.0214634 8.96512,26.2504065 C8.70912,26.9918699 8.38144,29.2708943 8.38144,29.2813008 C7.61344,34.3882927 7.11424,41.8627642 6.87616,43.8113821 C6.72302575,45.0640037 6.63756424,46.3242136 6.62016,47.5863415 L6.62016,47.7138211 C7.50848,48.7102439 8.41216,51.1193496 8.60416,54.4962602 L8.65536,56.3746341 L8.07936,56.041626 C6.08,54.7876423 2.68288,51.7125203 3.87584,45.3281301 C4.95104,39.6045528 0.03584,10.5626016 0.03584,10.5626016 L10.68288,8.86634146 C11.4692391,5.5481181 13.9610556,2.92221539 17.19552,2.00325203 L17.84064,2.97365854 Z" fill="#EFC95E"></path>
                                    <path d="M36.7488,0.637398374 C36.7488,0.637398374 36.08832,-1.02243902 33.6768,1.56617886 C32.9827815,2.45800461 32.0917065,3.17104714 31.07584,3.64747967 L34.95424,8.16390244 L36.7488,0.637398374 Z" fill="url(#linearGradient-7)"></path>
                                    <path d="M7.73632,2.63284553 C7.73632,2.63284553 7.38048,1.1395122 9.04704,1.83414634 C9.74336,2.12552846 10.95936,3.39512195 11.4432,3.98308943 L12.27264,5.32552846 L9.64608,9.4699187 L7.73632,2.63284553 Z" fill="url(#linearGradient-8)"></path>
                                    <path d="M15.22688,48.1613008 C14.3104,53.8276423 17.27488,55.0009756 17.81504,55.1258537 C21.07904,55.7190244 26.26304,55.464065 27.94752,54.8656911 C29.52448,54.3011382 32.84992,52.6230894 32.02304,47.5993496 L33.64352,57.4491057 L13.50912,57.4491057 L15.22688,48.1613008 Z" fill="#7F7F7F" opacity="0.2" style="mix-blend-mode: multiply;"></path>
                                    <path d="M38.912,52.6465041 C38.912,52.6465041 40.04096,49.1421138 41.41568,47.8569106 C39.936,50.7317073 41.95328,51.4133333 42.496,51.2234146 C44.52096,50.4871545 45.3248,48.6634146 45.48608,45.4686179 C45.48608,45.4686179 46.27456,49.1499187 44.71808,52.2614634 C43.58144,54.5352846 40.36608,56.2835772 38.784,57.1603252 L38.912,52.6465041 Z" fill="#EFC95E"></path>
                                </g>
                            </g>
                        </g>
                        <g id="Clipped" stroke="none" stroke-width="1" fill="none" fill-rule="evenodd" transform="translate(0.768000, 0.000000)">
                            <mask id="mask-10" fill="white">
                                <use xlink:href="#path-9"></use>
                            </mask>
                            <g id="Path"></g>
                            <path d="M30.47936,6.09560976 C30.47936,6.09560976 32.52736,6.66276423 33.3568,7.86211382 C34.18624,9.06146341 35.01568,11.1479675 36.6848,14.4598374 C37.888,16.8377236 40.31232,20.5918699 40.83712,24.3668293 C41.0752,26.5469919 39.51616,28.6282927 39.27552,29.1017886 C39.31904,29.2344715 40.60416,27.8790244 40.64768,28.0117073 C43.11808,35.4029268 45.2096,44.2692683 46.22592,48.8585366 C47.96672,56.7102439 43.15392,59.8269919 43.15392,59.8269919 L45.45792,58.4663415 C45.45792,58.4663415 47.83616,55.6045528 48.19456,54.337561 C48.97792,51.5798374 53.44,53.0731707 52.61568,48.6738211 C51.79136,44.2744715 51.42272,33.1811382 48.128,23.4146341 C46.66368,19.0621138 38.976,11.5928455 38.976,11.5928455 L37.952,10.9814634 C37.1712,9.57138211 34.92096,5.67934959 30.58688,5.3203252 L30.47936,6.09560976 Z" id="Path" fill="url(#linearGradient-11)" opacity="0.5" style="mix-blend-mode: overlay;" mask="url(#mask-10)"></path>
                        </g>
                        <path d="M34.46016,6.1996748 L39.424,2.46373984 C39.8065631,2.17517854 40.3260013,2.16105405 40.7232011,2.42841215 C41.1204009,2.69577024 41.3102639,3.18733061 41.19808,3.65788618 L39.31136,11.5356098 L39.26016,11.7957724 M18.4576,6.90731707 L13.51424,3.78536585 C13.1152267,3.53372471 12.6048782,3.55802969 12.2307703,3.84649019 C11.8566625,4.13495068 11.69619,4.62789043 11.8272,5.08617886 L13.99808,12.8546341 L14.15424,13.4243902 M43.16672,26.796748 L49.76384,48.6061789 C50.4503027,51.0767775 50.1350172,53.7238304 48.888342,55.9566279 C47.6416667,58.1894254 45.5673604,59.8221355 43.12832,60.4904065 M12.94848,59.7229268 C9.45028149,57.8501435 7.4703992,53.9609615 7.9872,49.9772358 L12.01408,28.4565854" id="Shape" stroke="#31323D" stroke-width="0.8" fill="none" stroke-linecap="round"></path>
                        <path d="M19.66336,51.5590244 C19.5968,52.1452575 19.52,52.7280217 19.43296,53.3073171 C19.35104,53.8874797 19.25888,54.4676423 19.1616,55.0452033 C18.96448,56.2003252 18.74688,57.3528455 18.53952,58.5079675 L17.92,61.9733333 C17.7957641,62.6111121 17.4661064,63.1886979 16.98304,63.6149593 C16.4994218,64.0400418 15.8929604,64.2938754 15.25504,64.3382114 C15.0998627,64.3473208 14.9442973,64.3473208 14.78912,64.3382114 L14.336,64.3121951 L13.4784,64.2601626 L11.7504,64.1534959 C11.3983376,64.1466972 11.0596766,64.0151036 10.79296,63.7814634 C10.5330382,63.5269172 10.3798787,63.1802001 10.36544,62.8136585 C10.3561433,62.6444337 10.3690568,62.4747042 10.40384,62.3089431 C10.4399579,62.1147024 10.5286045,61.9345265 10.65984,61.7886179 C10.8914211,61.5228505 11.2043612,61.3441313 11.54816,61.2813008 C11.6325164,61.2633887 11.718101,61.2520818 11.80416,61.2474797 C11.8650691,61.2438472 11.9257427,61.2368995 11.98592,61.2266667 C12.0954216,61.2090206 12.20007,61.1682531 12.29312,61.1069919 C12.4769134,60.9682624 12.6036708,60.7653037 12.64896,60.5372358 C12.710553,60.2741543 12.732989,60.0031754 12.71552,59.7333333 L12.67968,58.8565854 L12.53888,55.3417886 L12.53888,55.36 C12.4619211,54.6012465 12.3057352,53.852969 12.07296,53.1278049 C11.8203322,52.4081515 11.4555779,51.7344179 10.99264,51.1323577 C10.9782303,51.1149661 10.9714465,51.092342 10.973864,51.0697393 C10.9762815,51.0471366 10.9876899,51.0265221 11.00544,51.0126829 C11.0375087,50.9835334 11.0860113,50.9835334 11.11808,51.0126829 C11.67517,51.5770121 12.1163545,52.2482228 12.416,52.9873171 C12.7090398,53.7260385 12.9036155,54.5012478 12.99456,55.2923577 L12.99456,55.3131707 L13.16608,58.8305691 L13.20704,59.7099187 C13.2275264,60.0275705 13.2025188,60.3465623 13.1328,60.6569106 C13.0579773,61.0083785 12.8572383,61.3190194 12.5696,61.5284553 C12.4210056,61.6305756 12.2524766,61.6989058 12.07552,61.7287805 C11.991035,61.7454204 11.9054803,61.7558539 11.81952,61.76 C11.7593085,61.7648408 11.6994568,61.7735301 11.64032,61.7860163 C11.4114655,61.828604 11.2027591,61.9465389 11.0464,62.121626 C10.9797383,62.1989292 10.9354355,62.2934778 10.9184,62.3947967 C10.8947899,62.515502 10.8861893,62.6387426 10.8928,62.761626 C10.8974752,62.9882743 10.9893819,63.2040309 11.1488,63.3626016 C11.3258451,63.5130253 11.5503936,63.5934033 11.78112,63.5889431 L13.50912,63.6904065 L14.3744,63.7450407 L14.80704,63.7710569 C14.9391572,63.7800943 15.0717228,63.7800943 15.20384,63.7710569 C15.7287139,63.7501793 16.2327169,63.5566213 16.64,63.2195122 C17.0344813,62.8701908 17.3044514,62.3982919 17.408,61.8770732 L18.05824,58.4247154 C18.2784,57.2721951 18.48576,56.1196748 18.71616,54.9697561 C18.83392,54.3947967 18.95424,53.8198374 19.0848,53.2474797 C19.21536,52.675122 19.3408,52.1053659 19.49696,51.5356098 C19.5023399,51.5136285 19.5163009,51.494824 19.535623,51.4835331 C19.5549451,51.4722422 19.5779601,51.4694399 19.59936,51.4757724 C19.6364482,51.4861072 19.6624668,51.5199524 19.66336,51.5590244 Z M36.45696,50.9606504 C36.61056,51.6301355 36.7522133,52.3004878 36.88192,52.9717073 C37.0176,53.6429268 37.13792,54.316748 37.26336,54.9905691 C37.504,56.340813 37.7216,57.6910569 37.952,59.0413008 L38.29248,61.0679675 L38.37696,61.5752846 C38.4044366,61.7276585 38.44469,61.8773643 38.49728,62.0227642 C38.6054138,62.3103087 38.765133,62.5749548 38.96832,62.803252 C39.1713435,63.0351277 39.4164578,63.2250443 39.69024,63.3626016 C39.9514785,63.504689 40.2438846,63.5771891 40.54016,63.5733333 L42.54976,63.4978862 L43.5584,63.4692683 L44.0576,63.4510569 C44.1936076,63.4394865 44.3268074,63.4052056 44.45184,63.3495935 C44.6850625,63.2409151 44.8391266,63.0090722 44.8512,62.7486179 C44.86911,62.6034953 44.86911,62.4566673 44.8512,62.3115447 C44.8291695,62.1767578 44.7831943,62.0471684 44.71552,61.9291057 C44.6550559,61.8203387 44.5665467,61.7303903 44.45952,61.6689431 C44.4080504,61.6384499 44.3517388,61.6173198 44.29312,61.6065041 C44.26496,61.6065041 44.23168,61.6065041 44.20096,61.5908943 L44.06784,61.5908943 C43.8665078,61.5714372 43.6708491,61.512227 43.49184,61.4165854 C43.302896,61.3094885 43.1462435,61.1520877 43.03872,60.9613008 C42.8727524,60.6095343 42.809666,60.2167342 42.85696,59.8295935 L42.87744,58.7889431 L42.90048,57.7482927 C42.9154823,57.3997394 42.9496691,57.0523126 43.00288,56.7076423 C43.3404336,54.6281232 44.2859658,52.6999644 45.71648,51.1739837 C45.7323562,51.157618 45.7540261,51.1484042 45.77664,51.1484042 C45.7992539,51.1484042 45.8209238,51.157618 45.8368,51.1739837 C45.8643696,51.2069977 45.8643696,51.2554413 45.8368,51.2884553 C44.22144,53.460813 43.23328,56.0728455 43.36128,58.8019512 L43.34592,59.8269919 L43.34592,60.0871545 C43.3419726,60.1616805 43.3419726,60.2363683 43.34592,60.3108943 C43.3586001,60.4469481 43.3986841,60.5788966 43.46368,60.6985366 C43.6047587,60.9244753 43.8480928,61.0632709 44.11136,61.0679675 L44.22912,61.0679675 C44.2816596,61.0719467 44.3338483,61.0797719 44.38528,61.0913821 C44.492461,61.1133913 44.5959368,61.1510731 44.69248,61.203252 C44.8812135,61.3080436 45.0386368,61.4626338 45.14816,61.6507317 C45.2540331,61.82774 45.3253089,62.0238437 45.35808,62.2282927 C45.3824198,62.4226307 45.3824198,62.6193205 45.35808,62.8136585 C45.3360311,63.0248539 45.2659146,63.2279352 45.15328,63.4068293 C45.0343082,63.5924761 44.8655253,63.7396285 44.66688,63.8308943 C44.4843953,63.9166355 44.2886225,63.9694557 44.08832,63.9869919 L43.57632,64.0078049 L42.55232,64.0468293 L40.51968,64.1092683 C40.1387869,64.1106037 39.7634068,64.0167962 39.42656,63.8360976 C38.7595181,63.4910314 38.246227,62.9015162 37.9904,62.1866667 C37.9422554,62.0137305 37.9080096,61.8371067 37.888,61.6585366 L37.80608,61.1512195 L37.48096,59.1219512 C37.26336,57.7691057 37.03552,56.4188618 36.83328,55.0634146 C36.73088,54.3869919 36.6336,53.7079675 36.54656,53.0289431 C36.45952,52.3499187 36.37248,51.6682927 36.29056,50.9866667 C36.2884279,50.9638767 36.2953403,50.9411651 36.3097614,50.9235784 C36.3241825,50.9059917 36.3449178,50.8949865 36.36736,50.8930081 C36.4097178,50.8894391 36.4480895,50.9184073 36.45696,50.9606504 Z M22.016,6.44682927 C21.905139,6.16352088 21.7504419,5.90003625 21.55776,5.66634146 C21.3694114,5.43429662 21.1475934,5.23255454 20.89984,5.06796748 C20.4011047,4.75022513 19.8291537,4.57082666 19.24096,4.54764228 C19.1157895,4.5300946 19.0265472,4.41529282 19.03872,4.28747967 C19.0495117,4.20559443 19.1006706,4.13496538 19.1744,4.1001626 C19.5232065,3.93978943 19.8845653,3.80925583 20.25472,3.7099187 C20.6264524,3.60793414 21.0071744,3.54344872 21.39136,3.51739837 C21.7865847,3.48836378 22.1838004,3.52706024 22.5664,3.63186992 C22.9617106,3.74076885 23.3235978,3.94926218 23.61856,4.23804878 L23.22432,4.3499187 C23.2810355,4.09308093 23.3178417,3.83211812 23.3344,3.56943089 C23.3517675,3.30931286 23.3466278,3.0481474 23.31904,2.78894309 C23.2826498,2.27916137 23.0891748,1.79398091 22.76608,1.40227642 L22.76608,1.38666667 C22.6848199,1.28535852 22.699717,1.13629496 22.79936,1.05365854 C22.8482755,1.0115674 22.9125175,0.992643772 22.976,1.00162602 C23.3549555,1.05427803 23.7285037,1.14134734 24.09216,1.26178862 C24.4557881,1.38428757 24.8038229,1.55021803 25.12896,1.75609756 C25.4638334,1.96674705 25.7544189,2.2426059 25.984,2.56780488 C26.2085153,2.90490977 26.3418287,3.29610047 26.37056,3.70211382 L26.04288,3.6500813 C26.2410876,3.1794295 26.4738509,2.72459622 26.7392,2.28943089 C27.0030181,1.84828683 27.3119304,1.43668284 27.6608,1.06146341 C28.0139576,0.664438022 28.4517867,0.354754027 28.9408,0.156097561 C29.4651708,-0.0376583439 30.0434549,-0.0143003535 30.55104,0.221138211 C30.6677423,0.273487558 30.7222205,0.410744395 30.67392,0.530731707 C30.6661719,0.549474837 30.6558273,0.56699621 30.6432,0.582764228 C30.4332053,0.858689559 30.2448912,1.15097299 30.08,1.45691057 C29.9129561,1.75858076 29.7765727,2.07675292 29.67296,2.40650407 C29.5726093,2.720969 29.537737,3.05321272 29.57056,3.38211382 C29.6075871,3.69214168 29.7486269,3.97972687 29.96992,4.19642276 L29.65504,4.19642276 C29.9373759,3.96816453 30.2369696,3.76286802 30.55104,3.58243902 C30.8546829,3.39594653 31.1763707,3.24164096 31.51104,3.12195122 C31.8712175,2.99642067 32.2524065,2.94512283 32.63232,2.97105691 C33.0331773,3.00543047 33.4109947,3.17587607 33.70496,3.45495935 C33.7967527,3.54839906 33.7967527,3.69973103 33.70496,3.79317073 C33.6842591,3.81647365 33.6589643,3.83508841 33.63072,3.84780488 C33.3735268,3.95578517 33.125265,4.08454445 32.88832,4.23284553 C32.6481209,4.37918759 32.422616,4.54910576 32.21504,4.7401626 C32.0115827,4.92707411 31.8387471,5.14575329 31.70304,5.38796748 C31.5681956,5.62573225 31.4942549,5.89409999 31.488,6.16845528 C31.488,6.2216183 31.4455924,6.26471545 31.39328,6.26471545 C31.3409676,6.26471545 31.29856,6.2216183 31.29856,6.16845528 C31.2778812,5.85248402 31.3369186,5.53637866 31.47008,5.2500813 C31.5982683,4.96359209 31.7711628,4.70003331 31.98208,4.4695935 C32.1938722,4.25825028 32.4253585,4.06830742 32.67328,3.90243902 C32.91537,3.71862271 33.17228,3.55587821 33.44128,3.41593496 L33.37472,3.80878049 C33.1564156,3.60262044 32.8757151,3.47787442 32.57856,3.45495935 C32.2626821,3.43365532 31.9458099,3.47700478 31.64672,3.58243902 C31.3323213,3.68843925 31.0294978,3.82705637 30.74304,3.99609756 C30.4525027,4.16299844 30.1751856,4.35262231 29.9136,4.56325203 C29.820516,4.63757437 29.6880674,4.63205789 29.60128,4.5502439 C29.3042847,4.25717584 29.1146273,3.86985762 29.06368,3.45235772 C29.0215796,3.05614278 29.0625873,2.65535878 29.184,2.27642276 C29.2947857,1.91451853 29.4432528,1.56566039 29.62688,1.23577236 C29.8067907,0.905555383 30.0113361,0.589834391 30.23872,0.291382114 L30.32576,0.660813008 C29.9268344,0.461206746 29.4658923,0.43216364 29.04576,0.580162602 C28.6124587,0.748693376 28.2228003,1.01565582 27.90656,1.36065041 C27.5699405,1.70893862 27.2696758,2.09168016 27.01056,2.50276423 C26.7462671,2.9177583 26.5134861,3.35262237 26.31424,3.80357724 C26.278745,3.89109148 26.1810119,3.93382315 26.09408,3.8998374 C26.0351589,3.87631394 25.9944756,3.82085135 25.98912,3.75674797 C25.9569452,3.41585358 25.835877,3.08985093 25.6384,2.81235772 C25.4290568,2.53667533 25.1680286,2.30588824 24.8704,2.13333333 C24.5675506,1.95551722 24.2453885,1.81408024 23.9104,1.71186992 C23.5764791,1.6068897 23.2336667,1.53372852 22.8864,1.49333333 L23.08608,1.09268293 C23.2886552,1.32144515 23.448301,1.58596965 23.55712,1.87317073 C23.6605808,2.1538091 23.7285383,2.44666873 23.75936,2.74471545 C23.7908806,3.03584809 23.7968776,3.32925171 23.77728,3.62146341 C23.7585959,3.91391554 23.7175115,4.20444297 23.6544,4.4904065 C23.6240271,4.61778402 23.4984964,4.6966466 23.3728,4.66731707 C23.3323462,4.65748384 23.2952208,4.63682269 23.26528,4.60747967 C23.0260446,4.37427963 22.7328671,4.20607069 22.4128,4.11837398 C22.0790452,4.02900647 21.7330223,3.99647891 21.3888,4.02211382 C21.0366399,4.04634682 20.6876649,4.10560028 20.34688,4.19902439 C20.0041202,4.2917526 19.6693605,4.41269433 19.34592,4.56065041 L19.26912,4.10536585 C19.9191279,4.18715683 20.5368453,4.44005506 21.06112,4.83902439 C21.3259565,5.02681229 21.5615433,5.25395195 21.76,5.51284553 C21.9485559,5.78079681 22.0937481,6.07765934 22.19008,6.39219512 C22.2051638,6.44244136 22.1778219,6.49569883 22.12864,6.51186992 C22.081333,6.52751772 22.0303444,6.50218461 22.01344,6.45463415 L22.016,6.44682927 Z" id="Shape" stroke="none" fill="#31323D" fill-rule="nonzero"></path>
                        <path d="M32.18432,5.12260163 C32.922086,5.31579243 33.6339044,5.59973278 34.304,5.96813008 L34.31936,5.96813008 C34.7815469,6.25524732 35.2284647,6.56701085 35.65824,6.90211382 C36.094483,7.25126283 36.4981122,7.64055358 36.864,8.06504065 C37.568939,8.89756423 38.2205209,9.77525251 38.81472,10.6926829 C39.9944249,12.5157931 41.072184,14.4049619 42.04288,16.3512195 L42.7392,17.8341463 L43.07712,18.56 C43.19232,18.7993496 43.33312,19.0282927 43.45088,19.262439 C43.56864,19.4965854 43.72992,19.7125203 43.87584,19.9310569 C44.02176,20.1495935 44.17792,20.3629268 44.35456,20.5554472 C44.6845675,20.9583205 45.0629866,21.317546 45.48096,21.6247154 C45.8925304,21.9309122 46.3497462,22.1680682 46.8352,22.3271545 C47.0745559,22.4011399 47.320753,22.4499595 47.56992,22.4728455 L47.68768,22.4728455 C47.7874722,22.4891404 47.8757376,22.5477936 47.9304425,22.6341634 C47.9851473,22.7205333 48.0011298,22.82647 47.9744,22.9255285 C47.9597357,22.9737632 47.9362895,23.0187707 47.90528,23.0582114 L47.86432,23.1050407 C47.7600332,23.2208834 47.6412626,23.3223429 47.51104,23.4068293 C47.0013466,23.6974228 46.4201603,23.8328898 45.8368,23.7970732 C45.2835264,23.7741914 44.7346602,23.6869002 44.20096,23.5369106 L44.37248,23.0946341 C45.1694194,23.5238451 45.9969138,23.8917062 46.848,24.195122 C47.2667622,24.3421988 47.6942884,24.4621147 48.128,24.5541463 C48.34304,24.6009756 48.56064,24.6269919 48.77824,24.6530081 L49.1008,24.6686179 C49.13664,24.6686179 49.12896,24.6686179 49.23136,24.681626 C49.3172389,24.6991678 49.3932611,24.7494323 49.44384,24.8221138 C49.5496666,24.9678504 49.532104,25.1708729 49.40288,25.2956098 L49.35424,25.3346341 L49.32864,25.3502439 L49.29024,25.3710569 L49.21344,25.4126829 L49.05984,25.4933333 L48.74496,25.6468293 C48.53504,25.7482927 48.32,25.8419512 48.1024,25.9278049 C47.6673482,26.1053403 47.2186965,26.246301 46.76096,26.3492683 C46.2944823,26.4576525 45.815454,26.4996799 45.3376,26.4741463 C44.840104,26.4505419 44.3565931,26.2992814 43.93216,26.0344715 L44.24192,25.9876423 C43.7113762,26.5754023 43.1544097,27.1379526 42.5728,27.6734959 C41.9950501,28.20919 41.3900596,28.7137308 40.76032,29.1850407 C40.7403159,29.2006343 40.7150201,29.2074801 40.6900343,29.2040619 C40.6650484,29.2006437 40.6424344,29.1872437 40.6272,29.1668293 C40.5995238,29.1243074 40.6071938,29.0675175 40.64512,29.0341463 C41.2388322,28.5313593 41.8054159,27.996381 42.3424,27.4315447 C42.88,26.8721951 43.40224,26.2842276 43.8784,25.6806504 C43.947481,25.5936537 44.0670275,25.56762 44.16512,25.6182114 L44.18816,25.6312195 C44.8896,26.0865041 45.81632,26.0682927 46.66368,25.8913821 C47.1001998,25.7928213 47.5282386,25.6588417 47.94368,25.4907317 C48.15104,25.4100813 48.35584,25.3190244 48.55808,25.2305691 C48.66048,25.1837398 48.76032,25.1343089 48.86016,25.0822764 L49.00864,25.0042276 L49.08288,24.9652033 L49.11872,24.9443902 L49.10336,24.9573984 C49.0595128,24.9984753 49.0518887,25.0659945 49.08544,25.1160976 C49.1037647,25.1391252 49.1288981,25.1555451 49.15712,25.1629268 L49.11872,25.1629268 L48.76032,25.1447154 C48.52224,25.1160976 48.28672,25.0874797 48.05888,25.0380488 C47.6017107,24.9416992 47.1510819,24.8156961 46.70976,24.660813 C45.8342785,24.3545131 44.9835103,23.9796204 44.16512,23.5395122 C44.0618217,23.4816374 44.0165834,23.3550293 44.0592738,23.2432812 C44.1019643,23.131533 44.2194154,23.0691138 44.33408,23.0972358 C44.8348661,23.2389341 45.3505244,23.3192874 45.87008,23.3365854 C46.3602506,23.3714002 46.8499247,23.2621189 47.28064,23.0217886 C47.3753907,22.9611623 47.4615244,22.8876335 47.53664,22.803252 L47.5648,22.7746341 C47.5545564,22.7868739 47.5467333,22.8010077 47.54176,22.8162602 C47.5332006,22.8491079 47.538785,22.8841048 47.55712,22.9125203 C47.5757918,22.9414868 47.6054607,22.9612736 47.63904,22.9671545 L47.55712,22.9671545 C47.2731852,22.9410782 46.992658,22.885281 46.72,22.8006504 C46.1854204,22.6232918 45.6823651,22.3597686 45.23008,22.0201626 C44.7811788,21.6902579 44.3744258,21.3048567 44.0192,20.8728455 C43.83232,20.6647154 43.68128,20.4331707 43.5072,20.2120325 C43.33312,19.9908943 43.20512,19.7489431 43.06432,19.5121951 C42.92352,19.2754472 42.79296,19.0282927 42.67264,18.7811382 L42.32448,18.0344715 L41.64096,16.5749593 C40.6784441,14.6450205 39.6100973,12.771505 38.44096,10.963252 C37.8591989,10.0649415 37.2213009,9.20550533 36.5312,8.3902439 C36.1790221,7.98704217 35.7917434,7.61697639 35.37408,7.28455285 C34.97216,6.95414634 34.5216,6.67837398 34.07104,6.37658537 L34.0864,6.37658537 C33.4481818,6.02529054 32.7697863,5.75528708 32.06656,5.57268293 C31.9820694,5.55418286 31.9143372,5.49013851 31.8900979,5.40582872 C31.8658586,5.32151892 31.8890066,5.23048962 31.9504053,5.16867085 C32.011804,5.10685208 32.1015884,5.08417617 32.18432,5.1095935 L32.18432,5.12260163 Z M14.09536,30.0904065 C13.3876927,29.7172455 12.7187296,29.2727343 12.09856,28.7635772 C11.7765525,28.4987969 11.4952631,28.1866272 11.264,27.8373984 C11.1410474,27.6473411 11.0542166,27.4355586 11.008,27.2130081 C11.008,27.1557724 10.99008,27.0907317 10.98496,27.0386992 L10.98496,26.8878049 L10.96192,26.5886179 L11.32288,26.7837398 C10.976587,26.9749291 10.6009255,27.1051179 10.21184,27.1687805 C10.02496,27.2052033 9.84064,27.2338211 9.65376,27.2572358 L9.51552,27.2754472 C9.45291036,27.2822643 9.38961178,27.2733299 9.3312,27.2494309 C9.2676226,27.2214702 9.2133814,27.1753837 9.17504,27.116748 C9.10085233,26.9966515 9.10085233,26.8439989 9.17504,26.7239024 C9.19452781,26.6956302 9.21683244,26.6694757 9.2416,26.6458537 L9.28256,26.6146341 L9.3312,26.5730081 C9.601757,26.345405 9.85269526,26.0947383 10.08128,25.8237398 C10.3168,25.5635772 10.54464,25.2643902 10.75456,24.9756098 L11.04896,25.3320325 C10.437594,25.6358385 9.78943284,25.8562801 9.12128,25.9876423 C8.7834827,26.0515408 8.4408608,26.0854896 8.09728,26.0891057 L7.616,26.0891057 C7.47409179,26.0773782 7.35297929,25.9802265 7.30879564,25.8426783 C7.264612,25.7051302 7.30599323,25.5540704 7.41376,25.4595122 C7.46629279,25.4195424 7.52401302,25.3871487 7.58528,25.363252 L7.6928,25.3138211 C8.26445528,25.0336734 8.79097968,24.6670081 9.2544,24.2263415 C9.73035643,23.7881289 10.1648929,23.3055893 10.55232,22.7850407 L10.91072,23.0946341 C10.4526398,23.5616459 9.88123685,23.8973176 9.2544,24.0676423 C8.63472164,24.2235493 7.99060845,24.2518557 7.36,24.1508943 C7.20384,24.1274797 7.05024,24.0988618 6.89664,24.0650407 C6.81984,24.0494309 6.7456,24.0286179 6.6688,24.0104065 L6.55616,23.979187 L6.49984,23.9635772 C6.44974524,23.9515023 6.40322235,23.9274166 6.36416,23.8933333 C6.27437342,23.8191759 6.22600801,23.7050382 6.23468655,23.5877887 C6.2433651,23.4705391 6.30798761,23.3650387 6.40768,23.3053659 C6.43118713,23.2914696 6.45607159,23.2801332 6.48192,23.2715447 L6.50752,23.2715447 L6.55872,23.2533333 L6.66368,23.2169106 C6.80192,23.1674797 6.94016,23.1180488 7.07584,23.060813 C7.62292244,22.8337808 8.14823967,22.5559651 8.64512,22.2308943 C9.64510633,21.5871784 10.514172,20.7543239 11.20512,19.777561 C11.38688,19.540813 11.53024,19.2780488 11.68896,19.0256911 C11.84768,18.7733333 11.968,18.5053659 12.10112,18.2295935 C12.23424,17.9538211 12.32896,17.6936585 12.44928,17.3866667 L12.7744,16.5437398 C13.57824,14.2256911 14.46144,11.9102439 15.71072,9.76390244 C16.0242715,9.22273995 16.3831469,8.71005588 16.78336,8.23154472 C16.99328,7.98699187 17.2032,7.77105691 17.41568,7.54731707 C17.62816,7.32357724 17.87392,7.11804878 18.11456,6.9203252 C19.0872197,6.13248865 20.2046811,5.54963727 21.4016,5.20585366 C21.48341,5.17981108 21.5726829,5.20100169 21.6346766,5.26117879 C21.6966704,5.3213559 21.7215922,5.4110137 21.6997434,5.49526027 C21.6778945,5.57950684 21.6127262,5.6450343 21.5296,5.66634146 C20.3839333,5.98594338 19.3131396,6.53623892 18.3808,7.28455285 C18.1504,7.45799458 17.93024,7.65138211 17.72032,7.86471545 C17.51296,8.08325203 17.30048,8.30178862 17.11104,8.52292683 C16.7284982,8.98094154 16.3858741,9.47189671 16.08704,9.9902439 C14.86848,12.0715447 13.9904,14.3713821 13.18912,16.681626 L12.85376,17.5531707 C12.75136,17.8133333 12.61568,18.1255285 12.50048,18.4091057 C12.38528,18.6926829 12.224,18.9710569 12.06784,19.2442276 C11.91168,19.5173984 11.7504,19.7853659 11.55584,20.0247154 C10.8322482,21.0514928 9.92148406,21.927608 8.87296,22.6055285 C8.35178754,22.9453803 7.80073659,23.2354016 7.22688,23.4718699 C7.08608,23.5343089 6.9376,23.5863415 6.79168,23.638374 L6.6816,23.6773984 L6.62528,23.6956098 L6.59968,23.6956098 L6.62016,23.6956098 C6.65419951,23.6766656 6.67656519,23.6415767 6.67966006,23.6022618 C6.68275493,23.5629469 6.66616298,23.5246907 6.63552,23.5004878 C6.63552,23.4874797 6.592,23.4744715 6.59968,23.4796748 L6.65344,23.4926829 L6.76096,23.5213008 L6.97344,23.5733333 C7.1168,23.6045528 7.2576,23.6305691 7.40096,23.6513821 C7.96816742,23.7443523 8.54797931,23.7204642 9.10592,23.5811382 C9.65346704,23.4336251 10.1526241,23.1409328 10.55232,22.7330081 C10.6442647,22.6397229 10.7931753,22.6397229 10.88512,22.7330081 C10.9661472,22.8179833 10.9748107,22.9500494 10.9056,23.0452033 C10.4977304,23.5916327 10.0409542,24.0985115 9.54112,24.5593496 C9.04124737,25.0340863 8.47326577,25.4288396 7.85664,25.7300813 L7.73888,25.7847154 C7.7056,25.7847154 7.63136,25.8393496 7.69024,25.8003252 C7.72334736,25.7731432 7.73900967,25.7296246 7.73097198,25.687149 C7.7229343,25.6446735 7.69250639,25.6101624 7.65184,25.5973984 L7.6288,25.5973984 L8.06656,25.5973984 C8.38193797,25.5939696 8.69637517,25.5617534 9.00608,25.5011382 C9.63288581,25.3797135 10.2407837,25.1732027 10.81344,24.8871545 C10.9106832,24.8370681 11.0291016,24.8622167 11.0984705,24.9476864 C11.1678395,25.0331561 11.169605,25.1560865 11.10272,25.2435772 C10.88,25.5531707 10.6496,25.8419512 10.40128,26.1281301 C10.1548975,26.4200562 9.88424509,26.6898869 9.59232,26.9346341 C9.5616,26.9554472 9.4848,27.0308943 9.54112,26.9684553 C9.56700476,26.9290846 9.56700476,26.8777447 9.54112,26.838374 C9.52914118,26.8184511 9.51119791,26.8029513 9.48992,26.7941463 C9.47297353,26.7912353 9.45566647,26.7912353 9.43872,26.7941463 L9.57184,26.7785366 C9.74848,26.7577236 9.92256,26.7291057 10.08384,26.6952846 C10.4167513,26.6424322 10.738627,26.5333957 11.03616,26.3726829 C11.0891071,26.340207 11.1525879,26.3304591 11.2126128,26.3455873 C11.2726378,26.3607156 11.3242804,26.3994783 11.35616,26.4533333 C11.3757049,26.4893475 11.3870759,26.5293483 11.38944,26.5704065 L11.38944,27.1453659 C11.4156681,27.3167577 11.4729575,27.4817171 11.5584,27.6318699 C11.7510843,27.9587244 11.990013,28.2550098 12.26752,28.5112195 C12.8598406,29.0453063 13.5039983,29.5168852 14.19008,29.9186992 C14.2113216,29.9316338 14.2265476,29.9527115 14.2323265,29.9771821 C14.2381055,30.0016528 14.2339513,30.0274573 14.2208,30.0487805 C14.1969394,30.0948417 14.1413703,30.1132818 14.09536,30.0904065 Z" id="Shape" stroke="none" fill="#31323D" fill-rule="nonzero"></path>
                        <path d="M22.03904,16.4630894 C22.03904,20.1261789 20.79744,20.9196748 18.78528,20.5398374 C17.7934745,20.3462025 16.7767906,20.3224606 15.77728,20.4695935 C13.64224,20.7947967 12.22912,19.9102439 12.2496,16.6087805 C12.2511176,13.8979925 14.3706322,11.6783583 17.0368,11.5954472 C18.3378147,11.5577084 19.59944,12.051442 20.5395203,12.9662271 C21.4796005,13.8810121 22.0197042,15.1405275 22.03904,16.4630894 Z" id="Path" stroke="none" fill="#FFFFFF" fill-rule="evenodd"></path>
                        <path d="M22.03904,16.4630894 C22.03904,20.1261789 20.79744,20.9196748 18.78528,20.5398374 C17.7934745,20.3462025 16.7767906,20.3224606 15.77728,20.4695935 C13.64224,20.7947967 12.22912,19.9102439 12.2496,16.6087805 C12.2511176,13.8979925 14.3706322,11.6783583 17.0368,11.5954472 C18.3378147,11.5577084 19.59944,12.051442 20.5395203,12.9662271 C21.4796005,13.8810121 22.0197042,15.1405275 22.03904,16.4630894 Z" id="Path" stroke="#31323D" stroke-width="0.6" fill="none" stroke-linecap="round"></path>
                        <path d="M32.39936,15.7788618 C32.39936,19.4419512 33.64096,20.2380488 35.65312,19.8556098 C36.6449255,19.6619749 37.6616094,19.6382329 38.66112,19.7853659 C40.79616,20.1105691 42.20928,19.2260163 42.1888,15.9271545 C42.1830542,13.2203102 40.0639757,11.0068907 37.4016,10.9268293 C36.1032044,10.889098 34.8438974,11.3807077 33.9042682,12.2921217 C32.964639,13.2035357 32.4227569,14.4590289 32.39936,15.7788618 Z" id="Path" stroke="none" fill="#FFFFFF" fill-rule="evenodd"></path>
                        <path d="M32.39936,15.7788618 C32.39936,19.4419512 33.64096,20.2380488 35.65312,19.8556098 C36.6449255,19.6619749 37.6616094,19.6382329 38.66112,19.7853659 C40.79616,20.1105691 42.20928,19.2260163 42.1888,15.9271545 C42.1830542,13.2203102 40.0639757,11.0068907 37.4016,10.9268293 C36.1032044,10.889098 34.8438974,11.3807077 33.9042682,12.2921217 C32.964639,13.2035357 32.4227569,14.4590289 32.39936,15.7788618 Z" id="Path" stroke="#31323D" stroke-width="0.5" fill="none" stroke-linecap="round"></path>
                        <path d="M29.50144,23.0946341 C29.50144,23.0946341 29.66784,26.003252 27.96544,26.1723577 C25.3824,26.4325203 25.792,23.7060163 25.792,23.7060163 C25.792,23.7060163 26.46784,24.9886179 27.328,24.7778862 C28.74368,24.4370732 29.50144,23.0946341 29.50144,23.0946341 Z" id="Path" stroke="none" fill="#EFC95E" fill-rule="evenodd"></path>
                        <path d="M25.72544,23.9349593 C25.72544,23.9349593 25.68704,25.4725203 27.59936,25.495935 C29.51168,25.5193496 29.54752,22.8162602 29.54752,22.8162602 L27.24352,21.4920325 L25.72544,23.9349593 Z" id="Path" stroke="none" fill="#F29CB1" fill-rule="evenodd"></path>
                        <path d="M27.328,21.6507317 L27.61216,24.0182114" id="Path" stroke="#DB829B" stroke-width="0.5" fill="none" stroke-linecap="round"></path>
                        <path d="M27.648,21.1069919 C28.7114224,22.3705459 30.2095401,23.1736621 31.83616,23.3521951 C32.0384,23.380813 32.24576,23.3704065 32.45056,23.380813 L32.75776,23.380813 L33.06496,23.3521951 C33.26976,23.3261789 33.47712,23.3235772 33.67936,23.2819512 L34.28352,23.1466667 C34.38592,23.1206504 34.48832,23.1076423 34.5856,23.0738211 L34.88,22.9697561 L35.47136,22.761626 C35.8528,22.595122 36.224,22.4052033 36.60544,22.2256911 C36.6213768,22.2176388 36.6398231,22.2164083 36.656659,22.2222744 C36.6734948,22.2281406 36.6873176,22.2406146 36.69504,22.2569106 C36.7085103,22.2900423 36.6952699,22.3281667 36.66432,22.3453659 C36.29056,22.5430894 35.91936,22.7538211 35.53792,22.9411382 L34.94656,23.1778862 L34.6496,23.2949593 C34.54976,23.3365854 34.4448,23.3547967 34.3424,23.3860163 L33.72288,23.5525203 C33.51552,23.6019512 33.30048,23.617561 33.09056,23.6513821 L32.77056,23.6982114 L32.448,23.6982114 C32.23296,23.6982114 32.01792,23.7164228 31.80288,23.6982114 C30.0403352,23.5803912 28.3901384,22.7772805 27.19488,21.4556098 C27.0902552,21.337789 27.0994244,21.1560822 27.21536,21.0497561 C27.3312956,20.9434301 27.5100952,20.9527484 27.61472,21.0705691 L27.648,21.1069919 Z" id="Path" stroke="none" fill="#31323D" fill-rule="evenodd"></path>
                        <path d="M17.50016,24.2419512 C18.4102454,24.7284514 19.3871394,25.0731175 20.39808,25.2643902 C21.3898437,25.4774476 22.4176788,25.4426293 23.39328,25.1629268 C23.867461,25.0138352 24.3163928,24.791861 24.72448,24.5047154 C25.1278507,24.211978 25.4874164,23.8614626 25.792,23.464065 L26.01472,23.1622764 C26.0864,23.0582114 26.14784,22.9463415 26.2144,22.8396748 C26.3463292,22.6239385 26.4659918,22.4007003 26.5728,22.1710569 C26.68544,21.9421138 26.77248,21.7001626 26.87232,21.4686179 C26.97216,21.2370732 26.98752,20.9665041 27.2128,20.7713821 C27.3016733,20.694625 27.4345545,20.7038586 27.51232,20.7921951 C27.5373578,20.8225683 27.553344,20.8595735 27.5584,20.8988618 C27.6096,21.1954472 27.45856,21.4321951 27.37408,21.6793496 C27.2896,21.9265041 27.16416,22.1762602 27.03616,22.4156098 C26.9137552,22.6569185 26.7787356,22.8913999 26.63168,23.1180488 C26.55744,23.2325203 26.48832,23.3469919 26.40896,23.4562602 L26.15296,23.7788618 C25.8085587,24.2031175 25.4049228,24.5738744 24.95488,24.8793496 C24.5030178,25.1816472 24.005895,25.4074524 23.48288,25.5479675 C22.4455103,25.801427 21.3630033,25.7942835 20.32896,25.5271545 C19.3110777,25.2779817 18.3364851,24.8726822 17.43872,24.3252033 C17.4282645,24.3192459 17.4206897,24.3091699 17.4177825,24.297352 C17.4148753,24.2855341 17.4168931,24.2730209 17.42336,24.2627642 C17.4346708,24.2412117 17.4610323,24.2330581 17.48224,24.2445528 L17.50016,24.2419512 Z" id="Path" stroke="none" fill="#31323D" fill-rule="evenodd"></path>
                        <path d="M24.832,20.375935 C24.7383447,20.1701521 24.7724336,19.9276497 24.91904,19.756748 C25.23136,19.395122 25.91488,18.8435772 27.25376,18.7291057 C28.59264,18.6146341 29.26592,19.0360976 29.5936,19.3482927 C29.7565033,19.5030212 29.8120221,19.7420434 29.7344,19.9544715 C29.6360136,20.2419156 29.3821918,20.4450251 29.08416,20.4747967 C28.6019905,20.5051759 28.1628358,20.766964 27.90144,21.1798374 C27.8838966,21.2119695 27.8623895,21.2416948 27.83744,21.2682927 C27.7144474,21.4023451 27.5433537,21.4801753 27.3630432,21.4840949 C27.1827326,21.4880145 27.0085206,21.4176906 26.88,21.2891057 C26.88,21.2891057 26.57024,20.8338211 25.55392,20.8338211 C25.2499345,20.8318572 24.9745138,20.6513425 24.84736,20.3707317 L24.832,20.375935 Z M31.20384,21.0731707 C33.2591194,20.6192251 35.3604275,20.4165951 37.46304,20.4695935 C38.512132,20.4973004 39.5585701,20.5902657 40.59648,20.7479675 C41.10848,20.8364228 41.62048,20.9144715 42.13248,21.0393496 C42.38848,21.099187 42.64448,21.1460163 42.90048,21.2162602 L43.66848,21.4269919 C45.6863964,22.0062234 47.6198314,22.8548106 49.41824,23.9505691 C51.2132958,25.04093 52.8656286,26.3573669 54.336,27.8686179 C52.8452731,26.3830784 51.17673,25.0938418 49.3696,24.0312195 C47.5659079,22.9715564 45.6326815,22.1580503 43.61984,21.6117073 L42.86464,21.4139837 C42.60864,21.3489431 42.35264,21.3047154 42.09664,21.2500813 C41.58464,21.1356098 41.07264,21.0653659 40.56064,20.9899187 C39.5311207,20.8495576 38.4940521,20.7739665 37.45536,20.7635772 C35.379297,20.7429614 33.3081975,20.9735261 31.28576,21.4504065 C31.2203661,21.4662075 31.1516448,21.4453538 31.1054827,21.3957006 C31.0593206,21.3460475 31.0427309,21.2751385 31.0619627,21.2096844 C31.0811945,21.1442302 31.1333261,21.094175 31.19872,21.078374 L31.20384,21.0731707 Z M24.04352,22.5586992 C23.3921891,22.4562496 22.7339633,22.4057972 22.07488,22.4078049 C21.4149083,22.4046929 20.7557461,22.4551514 20.10368,22.5586992 C18.7912414,22.7460805 17.521138,23.1651799 16.35072,23.7970732 C15.1765333,24.4311032 14.1266512,25.2784934 13.25312,26.2972358 C12.3793638,27.3269249 11.6865778,28.5018097 11.20512,29.7704065 C11.6561852,28.4868322 12.3212514,27.2917211 13.1712,26.2373984 C14.0297831,25.1863174 15.071065,24.3044729 16.2432,23.6357724 C17.4230799,22.9645211 18.7084077,22.5059331 20.04224,22.2803252 C20.7078098,22.1614783 21.3813451,22.0945081 22.05696,22.08 C22.733645,22.0623114 23.4106609,22.0979738 24.08192,22.1866667 C24.1319978,22.1924163 24.1775751,22.2187534 24.2080445,22.2595484 C24.238514,22.3003434 24.251218,22.3520382 24.2432,22.4026016 C24.2368276,22.4526621 24.2111073,22.4980851 24.1717198,22.5288383 C24.1323323,22.5595914 24.0825183,22.5731445 24.03328,22.5665041 L24.04352,22.5586992 Z" id="Shape" stroke="none" fill="#31323D" fill-rule="nonzero"></path>
                        <path d="M0.12032,28.4695935 C1.60242257,27.0831143 3.22319101,25.858018 4.95616,24.8143089 C5.82696499,24.3026476 6.72237385,23.8355074 7.63904,23.4146341 C12.2793787,21.3003452 17.4151045,20.5686601 22.44864,21.3047154 C22.5204567,21.3078822 22.5843226,21.3520845 22.6135281,21.4188365 C22.6427337,21.4855885 22.6322467,21.5633886 22.5864529,21.6196996 C22.5406591,21.6760107 22.467449,21.7011302 22.39744,21.6845528 C18.4299522,21.0378506 14.3696724,21.3172077 10.52416,22.5014634 C9.56722572,22.7949947 8.62710571,23.1424153 7.70816,23.5421138 C6.78856058,23.9504221 5.88972156,24.4054126 5.01504,24.9053659 C3.26477602,25.9153743 1.62413961,27.1100497 0.12032,28.4695935 Z M32.09216,19.9752846 L37.74208,19.2520325 C38.6816,19.1349593 39.6288,18.9918699 40.58368,18.9684553 C43.4550062,18.8730295 46.3065612,19.483494 48.896,20.7479675 C50.59072,21.6221138 52.2624,22.5300813 53.94688,23.4172358 C52.2496,22.5586992 50.56,21.676748 48.85504,20.8338211 C47.1355119,20.0289977 45.2994125,19.5115555 43.4176,19.3014634 C42.4825895,19.1980134 41.5410312,19.1693074 40.6016,19.2156098 C39.66208,19.2572358 38.73024,19.4107317 37.7856,19.5460163 L32.1536,20.355122 C32.104348,20.3625509 32.0542152,20.3496983 32.0143243,20.3194158 C31.9744335,20.2891333 31.9480833,20.243925 31.94112,20.1938211 C31.9258277,20.0889977 31.9967675,19.991323 32.09984,19.9752846 L32.09216,19.9752846 Z M23.49568,23.3912195 C22.8159896,23.2168902 22.1043304,23.2168902 21.42464,23.3912195 C20.7404353,23.5738056 20.1287064,23.9673517 19.6736,24.5177236 C19.2158533,25.0783005 18.915967,25.7543518 18.80576,26.4741463 C18.6911466,27.2021319 18.7472827,27.9473333 18.9696,28.6491057 C18.7174631,27.9500695 18.6297923,27.2007698 18.7136,26.4611382 C18.7966793,25.7109055 19.0789663,24.9977596 19.53024,24.3980488 C19.9908241,23.7895811 20.6259165,23.3414239 21.34784,23.1154472 C22.0729162,22.893751 22.840733,22.8579984 23.58272,23.0113821 C23.6851694,23.0322991 23.7516046,23.1335722 23.7312,23.2377236 C23.721915,23.287522 23.6934283,23.3314828 23.6520795,23.3598227 C23.6107307,23.3881625 23.5599506,23.39853 23.51104,23.3886179 L23.49568,23.3912195 Z M32.128,21.801626 C32.902834,21.6553177 33.7012089,21.7053573 34.45248,21.9473171 C35.1998634,22.1908598 35.8656385,22.6413263 36.37504,23.2481301 C36.8779861,23.8492095 37.186388,24.5932332 37.25824,25.3788618 C37.3255423,26.151986 37.2051134,26.9300817 36.90752,27.644878 C37.1729198,26.9255586 37.2608167,26.1511014 37.16352,25.3892683 C37.0640237,24.6361286 36.7376267,23.9327336 36.22912,23.3756098 C35.725908,22.8257 35.0811745,22.4300463 34.368,22.2334959 C33.6608248,22.0373313 32.9169854,22.0212476 32.20224,22.1866667 C32.153314,22.1982606 32.1018552,22.1893471 32.0594709,22.1619367 C32.0170866,22.1345264 31.9873469,22.0909279 31.97696,22.0409756 C31.9547034,21.9375888 32.0187359,21.8353302 32.12032,21.8120325 L32.128,21.801626 Z" id="Shape" stroke="none" fill="#31323D" fill-rule="nonzero"></path>
                        <path d="M25.38496,28.8780488 C25.38496,28.8780488 25.68192,31.6487805 27.97056,31.4250407 C30.18496,31.2065041 30.28736,28.5918699 30.28736,28.5918699 C29.7906954,29.3313717 28.9961063,29.8080596 28.11904,29.8926829 C26.68544,29.9863415 25.38496,28.8780488 25.38496,28.8780488 Z" id="Path" stroke="none" fill="#EFC95E" fill-rule="evenodd"></path>
                        <path d="M30.38464,28.4539837 C30.3303718,28.72381 30.2279936,28.9812721 30.08256,29.2136585 C29.9255769,29.4448514 29.732788,29.6486824 29.51168,29.8172358 C29.2858295,29.9800908 29.0384807,30.1097175 28.77696,30.2022764 C28.5127459,30.2855953 28.2392066,30.334549 27.96288,30.3479675 C27.4133223,30.3643195 26.8690192,30.2352204 26.38336,29.9733333 C25.9049799,29.7196532 25.5112484,29.327667 25.25184,28.8468293 C25.2392959,28.824544 25.2363036,28.7980026 25.2435629,28.7734114 C25.2508222,28.7488203 25.2676965,28.7283358 25.29024,28.716748 C25.3271833,28.6967949 25.3725425,28.7030808 25.40288,28.7323577 C25.7373839,29.0796748 26.1392695,29.3525457 26.58304,29.5336585 C27.0133091,29.7077567 27.4744368,29.7892568 27.93728,29.7730081 C28.3937717,29.7540567 28.8393864,29.6256868 29.23776,29.398374 C29.4345208,29.277284 29.6166657,29.1332152 29.78048,28.9691057 C29.9428757,28.7929631 30.0846226,28.5982751 30.20288,28.3889431 C30.2156759,28.3667472 30.2366816,28.3506797 30.2612105,28.3443256 C30.2857393,28.3379715 30.3117502,28.3418594 30.33344,28.355122 C30.3689488,28.3741782 30.389287,28.4134492 30.38464,28.4539837 Z" id="Path" stroke="none" fill="#31323D" fill-rule="evenodd"></path>
                        <ellipse id="Oval" stroke="none" fill="#EF52D1" fill-rule="evenodd" cx="17.57696" cy="15.4146341" rx="3.02848" ry="3.07772358"></ellipse>
                        <ellipse id="Oval" stroke="none" fill="#31323D" fill-rule="evenodd" cx="17.48992" cy="15.4562602" rx="2.19392" ry="2.2295935"></ellipse>
                        <ellipse id="Oval" stroke="none" fill="#FFFFFF" fill-rule="evenodd" cx="18.72384" cy="13.7053659" rx="1.16736" ry="1.18634146"></ellipse>
                        <ellipse id="Oval" stroke="none" fill="#EF52D1" fill-rule="evenodd" cx="36.864" cy="14.6965854" rx="3.03104" ry="3.0803252"></ellipse>
                        <ellipse id="Oval" stroke="none" fill="#31323D" fill-rule="evenodd" cx="36.94848" cy="14.7382114" rx="2.19392" ry="2.2295935"></ellipse>
                        <ellipse id="Oval" stroke="none" fill="#FFFFFF" fill-rule="evenodd" cx="38.71488" cy="12.9899187" rx="1.16736" ry="1.18634146"></ellipse>
                    </g>
                </g>
            </g>
        </g>
    </g>
</svg>