<?xml version="1.0" encoding="UTF-8"?>
<svg width="64px" height="65px" viewBox="0 0 64 65" version="1.1" xmlns="http://www.w3.org/2000/svg" xmlns:xlink="http://www.w3.org/1999/xlink">
    <!-- Generator: Sketch 52.6 (67491) - http://www.bohemiancoding.com/sketch -->
    <title>dai</title>
    <desc>Created with Sketch.</desc>
    <g id="dai" stroke="none" stroke-width="1" fill="none" fill-rule="evenodd">
        <g id="Group">
            <g id="dai" transform="translate(4.000000, 4.000000)">
                <polygon id="Path" fill="#FFCE45" points="28 6.02150538 49.3763441 27.3977592 28 48.7741935 6.62365591 27.3977592"></polygon>
                <polygon id="Path" fill="#FEBE44" points="28 34.3225806 6.62365591 27.3588665 28 6.02150538 49.3763441 27.3588665"></polygon>
                <polygon id="Path" fill="#FFFFFF" points="14.4516129 25.8924731 24.194606 25.8924731 28.3701745 21.2189305 33.009695 25.8924731 42.7526882 25.8924731 28.3701745 10.2365591"></polygon>
                <polygon id="Path" fill="#D9A547" opacity="0.42" points="27.6989247 48.7741935 27.6989247 6.02150538 49.3763441 27.3978495 27.6989247 48.7741935"></polygon>
            </g>
            <rect id="Rectangle" fill-rule="nonzero" x="0" y="0" width="64" height="65"></rect>
            <circle id="Oval" stroke="#FFCE45" stroke-width="2" fill-rule="nonzero" cx="31.5" cy="31.5" r="28.5"></circle>
        </g>
        <g id="Group">
            <g id="dai" transform="translate(4.000000, 4.000000)">
                <polygon id="Path" fill="#FFCE45" points="28 6.02150538 49.3763441 27.3977592 28 48.7741935 6.62365591 27.3977592"></polygon>
                <polygon id="Path" fill="#FEBE44" points="28 34.3225806 6.62365591 27.3588665 28 6.02150538 49.3763441 27.3588665"></polygon>
                <polygon id="Path" fill="#FFFFFF" points="14.4516129 25.8924731 24.194606 25.8924731 28.3701745 21.2189305 33.009695 25.8924731 42.7526882 25.8924731 28.3701745 10.2365591"></polygon>
                <polygon id="Path" fill="#D9A547" opacity="0.42" points="27.6989247 48.7741935 27.6989247 6.02150538 49.3763441 27.3978495 27.6989247 48.7741935"></polygon>
            </g>
            <rect id="Rectangle" fill-rule="nonzero" x="0" y="0" width="64" height="65"></rect>
            <circle id="Oval" stroke="#FFCE45" stroke-width="2" fill-rule="nonzero" cx="31.5" cy="31.5" r="28.5"></circle>
        </g>
    </g>
</svg>