<?xml version="1.0" encoding="UTF-8"?>
<svg width="64px" height="64px" viewBox="0 0 64 64" version="1.1" xmlns="http://www.w3.org/2000/svg" xmlns:xlink="http://www.w3.org/1999/xlink">
    <!-- Generator: Sketch 52.6 (67491) - http://www.bohemiancoding.com/sketch -->
    <title>mana</title>
    <desc>Created with Sketch.</desc>
    <g id="mana" stroke="none" stroke-width="1" fill="none" fill-rule="evenodd">
        <g id="index-18.eps" fill-rule="nonzero">
            <path d="M29.9354839,0.0722580645 C30.3380645,0.0309677419 30.7509677,0.0516129032 31.163871,0.0206451613 C31.9277419,-0.0206451613 32.6916129,0.0103225806 33.4554839,0.0412903226 C35.3548387,0.134193548 37.243871,0.381935484 39.1019355,0.80516129 C43.3032258,1.76516129 47.3083871,3.59225806 50.7974194,6.14193548 C54.8645161,9.10451613 58.2296774,13.0374194 60.5212903,17.5277419 C62.6787097,21.7393548 63.8658065,26.4464516 64,31.1845161 L64,32.8877419 C63.8864516,37.6051613 62.7096774,42.2916129 60.5729032,46.4929032 C60.4490323,46.7406452 60.3251613,46.9987097 60.2012903,47.2464516 C59.7367742,48.0309677 59.2929032,48.8258065 58.7870968,49.5793548 C57.6206452,51.3548387 56.2890323,53.0064516 54.8025806,54.523871 C54.2245161,55.1225806 53.6051613,55.6696774 52.996129,56.2477419 C52.2529032,56.8567742 51.5096774,57.4658065 50.7251613,58.0335484 C47.1845161,60.5935484 43.1277419,62.4309677 38.8645161,63.3703226 C37.4812903,63.6696774 36.0670968,63.876129 34.6529032,64 L29.3264516,64 C24.9496774,63.6283871 20.6554839,62.3587097 16.8051613,60.2529032 C11.9845161,57.6412903 7.86580645,53.7703226 4.93419355,49.1354839 C2.84903226,45.8219355 1.36258065,42.116129 0.609032258,38.2658065 C-0.299354839,33.6929032 -0.185806452,28.9032258 0.929032258,24.3716129 C1.66193548,21.3987097 2.83870968,18.5290323 4.38709677,15.8864516 C6.46193548,12.3458065 9.21806452,9.20774194 12.4696774,6.69935484 C15.0812903,4.66580645 18.0232258,3.05548387 21.1303226,1.92 C23.9587097,0.887741935 26.9316129,0.268387097 29.9354839,0.0722580645 Z M26.8387097,3.03483871 C22.1006452,3.87096774 17.5793548,5.90451613 13.8012903,8.89806452 C10.7148387,11.323871 8.12387097,14.3896774 6.21419355,17.8270968 C4.18064516,21.5019355 2.95225806,25.6206452 2.64258065,29.8116129 C2.60129032,30.4309677 2.56,31.04 2.57032258,31.6593548 C3.04516129,31.6696774 3.50967742,31.6593548 3.98451613,31.6490323 C4.07741935,31.6490323 4.1083871,31.5458065 4.14967742,31.483871 C5.74967742,28.676129 7.36,25.8787097 8.94967742,23.0606452 C11.1896774,23.0503226 13.44,23.0503226 15.68,23.0606452 C16.1651613,24.5987097 16.6193548,26.1470968 17.0941935,27.6851613 C17.5483871,29.1509677 17.9716129,30.6270968 18.4464516,32.0929032 C20.2012903,31.6387097 21.9458065,31.1845161 23.7006452,30.7303226 C23.7935484,30.72 23.9070968,30.6683871 23.9896774,30.7303226 C24.8567742,31.2051613 25.723871,31.68 26.5806452,32.1548387 C26.6632258,32.196129 26.7664516,32.2683871 26.8283871,32.1548387 C27.9741935,30.72 29.0993548,29.2748387 30.2554839,27.84 C30.3070968,27.7470968 30.3896774,27.8193548 30.4516129,27.8503226 C31.1948387,28.283871 31.9380645,28.7174194 32.6812903,29.1509677 C32.8980645,29.2748387 33.1354839,29.3470968 33.3625806,29.4296774 C34.0335484,29.6670968 34.7045161,29.9251613 35.3754839,30.1522581 C35.8812903,29.9458065 36.356129,29.6670968 36.8516129,29.4193548 C36.9548387,29.3780645 37.0477419,29.3058065 37.0890323,29.1922581 C34.88,28.5625806 32.8877419,27.2 31.4735484,25.3832258 C30.4929032,24.1135484 29.7703226,22.6270968 29.4296774,21.0580645 C29.0580645,19.4787097 29.0787097,17.8167742 29.4296774,16.2374194 C29.8219355,14.5135484 30.6580645,12.8825806 31.8245161,11.5406452 C33.083871,10.0851613 34.7458065,8.97032258 36.5729032,8.34064516 C38.0903226,7.83483871 39.7109677,7.64903226 41.3006452,7.83483871 C43.4477419,8.06193548 45.5122581,8.96 47.163871,10.363871 C48.516129,11.52 49.5896774,13.0064516 50.2503226,14.6580645 C50.9625806,16.4541935 51.1793548,18.4464516 50.8903226,20.356129 C50.7767742,21.2129032 50.5083871,22.0490323 50.2090323,22.8541935 C50.0748387,23.163871 49.9096774,23.4632258 49.7858065,23.7832258 C50.2090323,23.803871 50.6322581,23.7832258 51.0554839,23.7935484 C52.1806452,25.3729032 53.3264516,26.9419355 54.4516129,28.5212903 C54.6580645,28.7690323 54.8129032,29.0580645 55.0296774,29.2954839 C55.9380645,29.1509677 56.8464516,28.9651613 57.7548387,28.8309677 C57.9303226,28.9651613 58.0541935,29.1509677 58.1987097,29.316129 C59.0348387,30.2451613 59.8606452,31.1845161 60.6864516,32.123871 C60.9341935,32.3922581 61.1509677,32.7019355 61.44,32.9393548 C61.4916129,31.2877419 61.3883871,29.636129 61.1716129,27.9948387 C60.9754839,26.7148387 60.7380645,25.4348387 60.3767742,24.196129 C59.7987097,22.0593548 58.9522581,20.0051613 57.9096774,18.0541935 C55.2154839,13.0683871 51.0554839,8.89806452 46.1006452,6.18322581 C42.24,4.06709677 37.9045161,2.8283871 33.5174194,2.62193548 C32.6812903,2.58064516 31.8348387,2.54967742 30.9987097,2.60129032 C29.6051613,2.63225806 28.2116129,2.78709677 26.8387097,3.03483871 Z M34.3535484,12.6348387 C32.9806452,13.9354839 32.0516129,15.7212903 31.8245161,17.6103226 C31.7316129,18.1470968 31.7625806,18.6941935 31.7625806,19.2309677 C31.8658065,20.8 32.4129032,22.3483871 33.3419355,23.6180645 C34.5083871,25.2387097 36.2735484,26.4154839 38.2245161,26.8593548 C38.5548387,26.9212903 38.8851613,27.0141935 39.2258065,27.003871 C41.1045161,24.9909677 42.9832258,22.9780645 44.8619355,20.9651613 C44.9651613,20.8619355 45.0477419,20.7380645 45.1819355,20.6658065 C45.5948387,21.2541935 46.0387097,21.8219355 46.4619355,22.4103226 C46.6683871,22.6787097 46.8541935,22.9677419 47.0812903,23.2154839 C47.3703226,22.8232258 47.5974194,22.3690323 47.7832258,21.9251613 C48.5574194,20.1393548 48.6709677,18.0851613 48.0825806,16.2374194 C47.5354839,14.4309677 46.3483871,12.8309677 44.7896774,11.7780645 C43.2206452,10.6941935 41.2696774,10.1883871 39.3806452,10.363871 C37.5122581,10.5187097 35.7058065,11.3341935 34.3535484,12.6348387 Z M43.4477419,26.24 C42.7251613,27.0141935 42.0025806,27.7780645 41.2696774,28.5522581 C41.156129,28.6864516 41.0219355,28.8 40.9290323,28.9548387 C41.4554839,28.7690323 41.9922581,28.5935484 42.4877419,28.3251613 C43.2103226,27.9535484 43.84,27.3341935 44.0877419,26.5496774 C44.0877419,26.4980645 44.1496774,26.4154839 44.1703226,26.5083871 C44.3664516,27.1380645 44.8206452,27.643871 45.3470968,28.0154839 C45.9251613,28.4180645 46.5858065,28.6864516 47.2567742,28.8825806 C47.9896774,29.1509677 48.6709677,29.5329032 49.2903226,30.0077419 C50.4258065,30.8851613 51.2929032,32.1548387 51.52,33.6 C51.5509677,33.7754839 51.5096774,33.9819355 51.643871,34.116129 C52.0051613,34.5496774 52.4696774,34.9006452 52.9651613,35.1483871 C53.5019355,35.3341935 54.0490323,35.5303226 54.5445161,35.8090323 C55.9070968,36.5729032 57.0632258,37.7806452 57.5277419,39.2877419 C57.6929032,39.8554839 57.7858065,40.443871 57.7135484,41.0322581 C57.6,41.723871 57.1354839,42.3019355 56.5574194,42.6941935 C55.6593548,43.2929032 54.596129,43.5509677 53.5432258,43.7367742 C52.4903226,43.9225806 51.6335484,44.8929032 51.5922581,45.9767742 C51.5922581,47.0090323 51.6025806,48.0412903 51.5922581,49.0735484 C51.5922581,49.6309677 51.1690323,50.1470968 50.6322581,50.2916129 C50.2812903,50.3845161 49.8787097,50.3225806 49.5793548,50.0954839 C49.2283871,49.8374194 49.0219355,49.403871 49.0322581,48.9703226 C49.0322581,48.1858065 49.0322581,47.4012903 49.0322581,46.6167742 C49.0219355,46.2554839 49.0632258,45.8735484 48.96,45.5225806 C48.7845161,44.8412903 48.3096774,44.2322581 47.6593548,43.9329032 C47.236129,43.716129 46.7406452,43.6954839 46.2864516,43.5922581 C46.0077419,43.5303226 45.7393548,43.4064516 45.4503226,43.3754839 C45.44,45.0787097 45.4503226,46.7819355 45.4503226,48.4851613 C45.4090323,49.2283871 44.9341935,49.8787097 44.3354839,50.2916129 C43.4890323,50.88 42.4670968,51.1587097 41.4658065,51.3548387 C40.7535484,51.4580645 40.0516129,51.5612903 39.3290323,51.5716129 C38.5548387,51.6232258 37.76,51.6232258 36.9858065,51.5922581 C35.7883871,51.5509677 34.5909677,51.4167742 33.4451613,51.0864516 C32.8670968,50.9212903 32.3096774,50.683871 31.803871,50.3535484 C31.236129,49.9716129 30.7406452,49.403871 30.6270968,48.7019355 C30.523871,47.7419355 30.7716129,46.7716129 31.236129,45.9354839 C31.9483871,44.6554839 33.156129,43.6851613 34.4877419,43.0967742 C34.9006452,42.9006452 35.3548387,42.7870968 35.7883871,42.6322581 C36.1909677,42.4774194 36.5832258,42.2812903 36.9445161,42.0232258 C37.4812903,41.6516129 37.9045161,41.1045161 38.08,40.4645161 C38.1625806,40.6503226 38.2245161,40.8567742 38.3380645,41.0322581 C38.6477419,41.5896774 39.163871,42.0129032 39.7109677,42.3225806 C40.5058065,42.7870968 41.4245161,42.9522581 42.2090323,43.4167742 C42.4567742,43.5303226 42.6632258,43.716129 42.9109677,43.8090323 C42.9419355,42.5703226 42.9212903,41.3316129 42.9212903,40.0929032 C42.9316129,39.5870968 42.9006452,39.0709677 42.6632258,38.6270968 C42.3329032,37.9458065 41.6619355,37.4503226 40.9187097,37.316129 C39.9070968,37.1406452 38.8851613,36.8825806 38.0180645,36.3148387 C37.44,35.9329032 36.9445161,35.3651613 36.8,34.6632258 C36.7070968,33.796129 36.9135484,32.9083871 37.2954839,32.123871 C36.8309677,32.3406452 36.3870968,32.5987097 35.9329032,32.836129 C35.7987097,32.8877419 35.6645161,33.0116129 35.5096774,32.9496774 C34.3535484,32.5264516 33.1974194,32.0929032 32.0309677,31.6696774 C31.6490323,31.5458065 31.3187097,31.2877419 30.9470968,31.1019355 C29.9148387,32.3922581 28.9135484,33.6929032 27.8812903,34.9832258 C26.5703226,36.6451613 25.2593548,38.3070968 23.9483871,39.9793548 C23.9070968,40.0103226 23.876129,40.0929032 23.8141935,40.0619355 C23.6077419,39.9380645 23.4322581,39.7729032 23.236129,39.6283871 C22.7716129,39.2464516 22.2864516,38.8954839 21.8425806,38.4929032 C22.8954839,37.1509677 23.9587097,35.8090323 25.0219355,34.4670968 C25.0632258,34.4154839 25.0941935,34.3432258 25.1251613,34.2812903 C24.6296774,34.0232258 24.1548387,33.7445161 23.6593548,33.4864516 C23.5870968,33.4451613 23.5148387,33.4658065 23.4425806,33.476129 C21.2025806,34.043871 18.9832258,34.6425806 16.7432258,35.1896774 C16.5470968,34.6322581 16.4129032,34.0645161 16.2167742,33.5070968 C15.4322581,30.9058065 14.6374194,28.3045161 13.8529032,25.7032258 C13.8529032,25.6206452 13.7703226,25.6103226 13.6980645,25.6103226 C12.6245161,25.6103226 11.5406452,25.6103226 10.4670968,25.6103226 C9.14580645,27.9432258 7.81419355,30.2658065 6.48258065,32.5987097 C6.18322581,33.1045161 5.91483871,33.6206452 5.60516129,34.116129 C5.3883871,34.1780645 5.16129032,34.1574194 4.94451613,34.1677419 C4.18064516,34.1677419 3.42709677,34.24 2.66322581,34.2193548 C2.69419355,34.9006452 2.80774194,35.5716129 2.88,36.2425806 C3.07612903,37.5122581 3.34451613,38.7819355 3.67483871,40.0206452 C4.17032258,40.0516129 4.65548387,40.0516129 5.15096774,40.0309677 C5.55354839,38.6374194 6.0283871,37.2851613 6.49290323,35.9122581 C7.18451613,33.8787097 7.88645161,31.8451613 8.57806452,29.8116129 C8.5883871,29.7806452 8.61935484,29.7290323 8.62967742,29.7083871 C8.74322581,29.7703226 8.72258065,29.9148387 8.76387097,30.0180645 C9.12516129,31.1535484 9.45548387,32.2993548 9.82709677,33.4348387 C10.4567742,35.2206452 11.0554839,37.0064516 11.643871,38.8025806 C11.7367742,38.6270968 11.7780645,38.4206452 11.8503226,38.2348387 C12.4490323,36.5006452 13.0477419,34.756129 13.636129,33.0219355 C13.7290323,32.7845161 13.7806452,32.5470968 13.8941935,32.3303226 C14.843871,35.0348387 15.7522581,37.76 16.6709677,40.4851613 C16.6916129,40.5058065 16.7122581,40.5574194 16.7225806,40.5883871 C17.3212903,40.6606452 17.9096774,40.6709677 18.5083871,40.763871 C18.9316129,40.7845161 19.3651613,40.8567742 19.7883871,40.8980645 C22.1419355,41.2077419 24.5058065,41.5587097 26.7354839,42.3845161 C27.5303226,42.6941935 28.3148387,43.0658065 28.9651613,43.6232258 C29.4709677,44.0464516 29.883871,44.6141935 30.0387097,45.2645161 C30.1832258,45.8735484 30.1212903,46.5135484 29.8632258,47.0812903 C29.5122581,47.8658065 28.9135484,48.516129 28.2735484,49.0735484 C27.6541935,49.6103226 26.9522581,50.0335484 26.2916129,50.5083871 C25.8683871,50.8180645 25.4554839,51.1277419 25.0529032,51.4580645 C24.5574194,51.8709677 24.0619355,52.2941935 23.6903226,52.8206452 C24.0103226,53.0064516 24.3716129,53.0890323 24.7225806,53.2129032 C27.0967742,53.8425806 29.5535484,54.1316129 31.9380645,54.6993548 C34.4258065,55.236129 36.923871,55.68 39.4012903,56.2270968 C41.5380645,56.6916129 43.6954839,57.1974194 45.6877419,58.1264516 C45.8941935,58.0645161 46.08,57.9406452 46.2658065,57.8374194 C49.3832258,56.1135484 52.1703226,53.8116129 54.4825806,51.0864516 C57.3419355,47.7109677 59.4374194,43.6748387 60.5212903,39.3806452 C60.7483871,38.4516129 60.9651613,37.5122581 61.0787097,36.5522581 C60.9858065,36.3767742 60.8103226,36.2425806 60.6864516,36.0774194 C59.5303226,34.7767742 58.3845161,33.4658065 57.2283871,32.1548387 C57.0632258,32 56.9496774,31.7729032 56.7432258,31.6593548 C56.443871,31.68 56.1445161,31.7625806 55.8451613,31.803871 C55.2258065,31.9174194 54.5858065,32.0206452 53.956129,32.1341935 C53.8735484,32.1651613 53.8012903,32.123871 53.76,32.0516129 C52.4283871,30.2245161 51.1070968,28.3974194 49.7858065,26.5703226 C49.6619355,26.3535484 49.3625806,26.4154839 49.1664516,26.4464516 C48.516129,26.9316129 47.9174194,27.4787097 47.2567742,27.9432258 C46.4722581,26.8696774 45.6774194,25.796129 44.8722581,24.7329032 C44.3870968,25.2180645 43.9225806,25.7341935 43.4477419,26.24 Z M42.9625806,30.9470968 C41.9612903,31.1535484 40.9806452,31.5664516 40.2374194,32.2787097 C39.7316129,32.7535484 39.3496774,33.403871 39.3083871,34.1058065 C39.6077419,34.3019355 39.9587097,34.4154839 40.3096774,34.5083871 C41.2180645,34.7664516 42.1470968,34.8490323 43.0864516,34.9212903 C43.7987097,34.9419355 44.5212903,34.9419355 45.243871,34.9212903 C45.7703226,34.8593548 46.3070968,34.8490323 46.8335484,34.756129 C47.5148387,34.6425806 48.1858065,34.5187097 48.8154839,34.24 C48.8877419,34.1987097 48.96,34.1574194 49.0219355,34.0954839 C49.0116129,33.7858065 48.9187097,33.4658065 48.7741935,33.1870968 C48.4232258,32.4851613 47.8141935,31.9483871 47.1329032,31.5767742 C45.8735484,30.8748387 44.3664516,30.6993548 42.9625806,30.9470968 Z M46.4412903,38.6580645 C45.9251613,39.1535484 45.5122581,39.8141935 45.4812903,40.5470968 C46.6993548,41.1251613 48.0516129,41.2490323 49.3729032,41.3316129 C50.7974194,41.3729032 52.2425806,41.3522581 53.636129,41.0529032 C54.1006452,40.96 54.5651613,40.836129 54.9987097,40.64 C55.0916129,40.5987097 55.236129,40.5470968 55.1948387,40.4129032 C55.0916129,39.5354839 54.5135484,38.8025806 53.8219355,38.3070968 C52.8412903,37.6051613 51.6335484,37.2645161 50.436129,37.2541935 C49.0012903,37.2335484 47.5148387,37.6670968 46.4412903,38.6580645 Z M8.64,37.6670968 C8.35096774,38.3690323 8.14451613,39.1122581 7.89677419,39.8348387 C7.86580645,39.9277419 7.84516129,40.0206452 7.83483871,40.123871 C8.3716129,40.1135484 8.9083871,40.123871 9.44516129,40.1341935 C9.43483871,40.0206452 9.41419355,39.9174194 9.38322581,39.8141935 C9.20774194,39.2774194 9.03225806,38.7406452 8.84645161,38.2141935 C8.78451613,38.0283871 8.73290323,37.8322581 8.64,37.6670968 Z M13.9458065,40.2477419 C13.6774194,41.1045161 13.3574194,41.9509677 13.0993548,42.8180645 C13.2954839,42.9006452 13.4916129,42.9316129 13.6980645,42.9419355 C14.0696774,42.9625806 14.4516129,42.9522581 14.8025806,42.8180645 C14.6374194,42.2090323 14.4,41.6206452 14.2141935,41.0219355 C14.1212903,40.763871 14.0593548,40.4954839 13.9458065,40.2477419 Z M4.54193548,42.6425806 C4.7483871,43.3032258 5.05806452,43.9225806 5.33677419,44.5625806 C6.22451613,46.4103226 7.27741935,48.1858065 8.52645161,49.8167742 C9.12516129,50.6116129 9.76516129,51.3858065 10.4567742,52.1083871 C11.396129,53.1716129 12.4593548,54.1006452 13.5535484,55.0090323 C14.4,55.6903226 15.2774194,56.3303226 16.196129,56.8980645 C16.4232258,57.0632258 16.6503226,57.2077419 16.8877419,57.3419355 C18.5703226,58.363871 20.3664516,59.1896774 22.2141935,59.8606452 C24.7329032,60.7380645 27.3754839,61.316129 30.0490323,61.4709677 C30.6270968,61.5329032 31.2154839,61.5122581 31.803871,61.5432258 C33.0116129,61.5329032 34.2296774,61.4916129 35.4270968,61.3367742 C36.7380645,61.2025806 38.0180645,60.9548387 39.2980645,60.6451613 C40.3509677,60.356129 41.4141935,60.0567742 42.4258065,59.643871 C39.8967742,58.9316129 37.3058065,58.4258065 34.7251613,57.8993548 C33.4554839,57.6206452 32.1651613,57.3832258 30.8954839,57.0941935 C29.8219355,56.836129 28.7380645,56.6296774 27.6541935,56.4335484 C26.24,56.1651613 24.8154839,55.9277419 23.4425806,55.4632258 C22.8232258,55.236129 22.1832258,54.9574194 21.7187097,54.4722581 C21.3058065,54.0696774 21.0683871,53.5019355 21.0787097,52.923871 C21.0580645,52.0980645 21.5329032,51.3651613 22.0593548,50.7664516 C23.0296774,49.6722581 24.2270968,48.8154839 25.403871,47.9690323 C26.0748387,47.5148387 26.7664516,47.0503226 27.2825806,46.4206452 C27.4064516,46.2451613 27.5819355,46.0490323 27.5406452,45.8116129 C27.3548387,45.4812903 27.003871,45.2851613 26.6735484,45.12 C26.1264516,44.8309677 25.5277419,44.6451613 24.9496774,44.4593548 C23.0296774,43.9122581 21.0580645,43.6232258 19.0967742,43.3858065 C18.56,43.323871 18.0232258,43.2412903 17.4864516,43.2309677 C17.4451613,43.9225806 16.9806452,44.5316129 16.4025806,44.8825806 C15.4735484,45.4709677 14.3380645,45.5845161 13.2748387,45.4812903 C12.3974194,45.3780645 11.4890323,45.0890323 10.8696774,44.4180645 C10.4567742,43.9845161 10.2503226,43.3548387 10.3845161,42.7664516 C10.0025806,42.6941935 9.62064516,42.7664516 9.24903226,42.8387097 C8.61935484,42.8593548 7.97935484,42.8903226 7.37032258,42.7251613 C7.24645161,42.6941935 7.11225806,42.6632258 6.97806452,42.6735484 C6.16258065,42.6735484 5.34709677,42.6116129 4.54193548,42.6425806 Z M37.4296774,44.9341935 C36.2529032,45.0477419 35.0658065,45.4709677 34.1780645,46.2658065 C33.6619355,46.7303226 33.2593548,47.36 33.1664516,48.0619355 C33.1251613,48.196129 33.2696774,48.2580645 33.3729032,48.3096774 C33.9922581,48.5780645 34.6529032,48.7122581 35.323871,48.8154839 C35.8916129,48.9083871 36.4593548,48.9703226 37.0270968,49.0012903 C37.6877419,49.0116129 38.3483871,49.0116129 39.0090323,49.0012903 C39.7522581,48.9496774 40.4851613,48.8774194 41.2077419,48.7329032 C41.7135484,48.64 42.2090323,48.5058065 42.6735484,48.2993548 C42.7664516,48.2580645 42.9212903,48.196129 42.8696774,48.0619355 C42.7974194,47.4219355 42.4567742,46.843871 42.0025806,46.4 C41.3316129,45.7290323 40.443871,45.3058065 39.5251613,45.0890323 C38.843871,44.9135484 38.1316129,44.8929032 37.4296774,44.9341935 Z M19.1690323,8.08258065 C20.1909677,7.95870968 21.243871,8.03096774 22.2245161,8.33032258 C23.4012903,8.6916129 24.4954839,9.34193548 25.3625806,10.2193548 C26.5496774,11.4064516 27.3135484,12.996129 27.4890323,14.6683871 C27.5509677,15.4322581 27.5406452,16.2167742 27.3651613,16.9703226 C26.9935484,18.8283871 25.8477419,20.5212903 24.2787097,21.5845161 C23.6387097,22.0387097 22.9264516,22.3587097 22.1832258,22.596129 C20.2012903,23.1845161 17.9716129,22.8954839 16.2064516,21.7909677 C14.9264516,20.996129 13.883871,19.7987097 13.2851613,18.4051613 C12.356129,16.3096774 12.4903226,13.7806452 13.6464516,11.7883871 C14.4825806,10.2916129 15.8658065,9.10451613 17.4658065,8.50580645 C18.0129032,8.28903226 18.5909677,8.16516129 19.1690323,8.08258065 Z M19.2722581,10.6529032 C17.8064516,10.9109677 16.4748387,11.8606452 15.7935484,13.1922581 C15.2670968,14.1935484 15.1019355,15.3703226 15.3393548,16.4748387 C15.5251613,17.3109677 15.9174194,18.0954839 16.4954839,18.7251613 C17.2283871,19.5303226 18.2296774,20.0980645 19.3032258,20.2632258 C20.3664516,20.4387097 21.4812903,20.2529032 22.4309677,19.7367742 C23.9483871,18.9109677 24.9909677,17.2283871 24.9496774,15.483871 C25.0012903,13.7083871 23.9380645,11.9845161 22.3896774,11.1690323 C21.44,10.6529032 20.3354839,10.4877419 19.2722581,10.6529032 Z" id="Shape" fill="#35312E"></path>
            <path d="M26.8387097,3.03483871 C28.2116129,2.78709677 29.6051613,2.63225806 30.9987097,2.60129032 C31.8348387,2.54967742 32.6812903,2.58064516 33.5174194,2.62193548 C37.9045161,2.8283871 42.24,4.06709677 46.1006452,6.18322581 C51.0554839,8.89806452 55.2154839,13.0683871 57.9096774,18.0541935 C58.9522581,20.0051613 59.7987097,22.0593548 60.3767742,24.196129 C60.7380645,25.4348387 60.9754839,26.7148387 61.1716129,27.9948387 C61.3883871,29.636129 61.4916129,31.2877419 61.44,32.9393548 C61.1509677,32.7019355 60.9341935,32.3922581 60.6864516,32.123871 C59.8606452,31.1845161 59.0348387,30.2451613 58.1987097,29.316129 C58.0541935,29.1509677 57.9303226,28.9651613 57.7548387,28.8309677 C56.8464516,28.9651613 55.9380645,29.1509677 55.0296774,29.2954839 C54.8129032,29.0580645 54.6580645,28.7690323 54.4516129,28.5212903 C53.3264516,26.9419355 52.1806452,25.3729032 51.0554839,23.7935484 C50.6322581,23.7832258 50.2090323,23.803871 49.7858065,23.7832258 C49.9096774,23.4632258 50.0748387,23.163871 50.2090323,22.8541935 C50.5083871,22.0490323 50.7767742,21.2129032 50.8903226,20.356129 C51.1793548,18.4464516 50.9625806,16.4541935 50.2503226,14.6580645 C49.5896774,13.0064516 48.516129,11.52 47.163871,10.363871 C45.5122581,8.96 43.4477419,8.06193548 41.3006452,7.83483871 C39.7109677,7.64903226 38.0903226,7.83483871 36.5729032,8.34064516 C34.7458065,8.97032258 33.083871,10.0851613 31.8245161,11.5406452 C30.6580645,12.8825806 29.8219355,14.5135484 29.4296774,16.2374194 C29.0787097,17.8167742 29.0580645,19.4787097 29.4296774,21.0580645 C29.7703226,22.6270968 30.4929032,24.1135484 31.4735484,25.3832258 C32.8877419,27.2 34.88,28.5625806 37.0890323,29.1922581 C37.0477419,29.3058065 36.9548387,29.3780645 36.8516129,29.4193548 C36.356129,29.6670968 35.8812903,29.9458065 35.3754839,30.1522581 C34.7045161,29.9251613 34.0335484,29.6670968 33.3625806,29.4296774 C33.1354839,29.3470968 32.8980645,29.2748387 32.6812903,29.1509677 C31.9380645,28.7174194 31.1948387,28.283871 30.4516129,27.8503226 C30.3896774,27.8193548 30.3070968,27.7470968 30.2554839,27.84 C29.0993548,29.2748387 27.9741935,30.72 26.8283871,32.1548387 C26.7664516,32.2683871 26.6632258,32.196129 26.5806452,32.1548387 C25.723871,31.68 24.8567742,31.2051613 23.9896774,30.7303226 C23.9070968,30.6683871 23.7935484,30.72 23.7006452,30.7303226 C21.9458065,31.1845161 20.2012903,31.6387097 18.4464516,32.0929032 C17.9716129,30.6270968 17.5483871,29.1509677 17.0941935,27.6851613 C16.6193548,26.1470968 16.1651613,24.5987097 15.68,23.0606452 C13.44,23.0503226 11.1896774,23.0503226 8.94967742,23.0606452 C7.36,25.8787097 5.74967742,28.676129 4.14967742,31.483871 C4.1083871,31.5458065 4.07741935,31.6490323 3.98451613,31.6490323 C3.50967742,31.6593548 3.04516129,31.6696774 2.57032258,31.6593548 C2.56,31.04 2.60129032,30.4309677 2.64258065,29.8116129 C2.95225806,25.6206452 4.18064516,21.5019355 6.21419355,17.8270968 C8.12387097,14.3896774 10.7148387,11.323871 13.8012903,8.89806452 C17.5793548,5.90451613 22.1006452,3.87096774 26.8387097,3.03483871 Z M19.1690323,8.08258065 C18.5909677,8.16516129 18.0129032,8.28903226 17.4658065,8.50580645 C15.8658065,9.10451613 14.4825806,10.2916129 13.6464516,11.7883871 C12.4903226,13.7806452 12.356129,16.3096774 13.2851613,18.4051613 C13.883871,19.7987097 14.9264516,20.996129 16.2064516,21.7909677 C17.9716129,22.8954839 20.2012903,23.1845161 22.1832258,22.596129 C22.9264516,22.3587097 23.6387097,22.0387097 24.2787097,21.5845161 C25.8477419,20.5212903 26.9935484,18.8283871 27.3651613,16.9703226 C27.5406452,16.2167742 27.5509677,15.4322581 27.4890323,14.6683871 C27.3135484,12.996129 26.5496774,11.4064516 25.3625806,10.2193548 C24.4954839,9.34193548 23.4012903,8.6916129 22.2245161,8.33032258 C21.243871,8.03096774 20.1909677,7.95870968 19.1690323,8.08258065 Z M4.54193548,42.6425806 C5.34709677,42.6116129 6.16258065,42.6735484 6.97806452,42.6735484 C7.11225806,42.6632258 7.24645161,42.6941935 7.37032258,42.7251613 C7.97935484,42.8903226 8.61935484,42.8593548 9.24903226,42.8387097 C9.62064516,42.7664516 10.0025806,42.6941935 10.3845161,42.7664516 C10.2503226,43.3548387 10.4567742,43.9845161 10.8696774,44.4180645 C11.4890323,45.0890323 12.3974194,45.3780645 13.2748387,45.4812903 C14.3380645,45.5845161 15.4735484,45.4709677 16.4025806,44.8825806 C16.9806452,44.5316129 17.4451613,43.9225806 17.4864516,43.2309677 C18.0232258,43.2412903 18.56,43.323871 19.0967742,43.3858065 C21.0580645,43.6232258 23.0296774,43.9122581 24.9496774,44.4593548 C25.5277419,44.6451613 26.1264516,44.8309677 26.6735484,45.12 C27.003871,45.2851613 27.3548387,45.4812903 27.5406452,45.8116129 C27.5819355,46.0490323 27.4064516,46.2451613 27.2825806,46.4206452 C26.7664516,47.0503226 26.0748387,47.5148387 25.403871,47.9690323 C24.2270968,48.8154839 23.0296774,49.6722581 22.0593548,50.7664516 C21.5329032,51.3651613 21.0580645,52.0980645 21.0787097,52.923871 C21.0683871,53.5019355 21.3058065,54.0696774 21.7187097,54.4722581 C22.1832258,54.9574194 22.8232258,55.236129 23.4425806,55.4632258 C24.8154839,55.9277419 26.24,56.1651613 27.6541935,56.4335484 C28.7380645,56.6296774 29.8219355,56.836129 30.8954839,57.0941935 C32.1651613,57.3832258 33.4554839,57.6206452 34.7251613,57.8993548 C37.3058065,58.4258065 39.8967742,58.9316129 42.4258065,59.643871 C41.4141935,60.0567742 40.3509677,60.356129 39.2980645,60.6451613 C38.0180645,60.9548387 36.7380645,61.2025806 35.4270968,61.3367742 C34.2296774,61.4916129 33.0116129,61.5329032 31.803871,61.5432258 C31.2154839,61.5122581 30.6270968,61.5329032 30.0490323,61.4709677 C27.3754839,61.316129 24.7329032,60.7380645 22.2141935,59.8606452 C20.3664516,59.1896774 18.5703226,58.363871 16.8877419,57.3419355 C16.6503226,57.2077419 16.4232258,57.0632258 16.196129,56.8980645 C15.2774194,56.3303226 14.4,55.6903226 13.5535484,55.0090323 C12.4593548,54.1006452 11.396129,53.1716129 10.4567742,52.1083871 C9.76516129,51.3858065 9.12516129,50.6116129 8.52645161,49.8167742 C7.27741935,48.1858065 6.22451613,46.4103226 5.33677419,44.5625806 C5.05806452,43.9225806 4.7483871,43.3032258 4.54193548,42.6425806 Z" id="Shape" fill="#D7D1C7"></path>
            <path d="M34.3535484,12.6348387 C35.7058065,11.3341935 37.5122581,10.5187097 39.3806452,10.363871 C41.2696774,10.1883871 43.2206452,10.6941935 44.7896774,11.7780645 C46.3483871,12.8309677 47.5354839,14.4309677 48.0825806,16.2374194 C48.6709677,18.0851613 48.5574194,20.1393548 47.7832258,21.9251613 C47.5974194,22.3690323 47.3703226,22.8232258 47.0812903,23.2154839 C46.8541935,22.9677419 46.6683871,22.6787097 46.4619355,22.4103226 C46.0387097,21.8219355 45.5948387,21.2541935 45.1819355,20.6658065 C45.0477419,20.7380645 44.9651613,20.8619355 44.8619355,20.9651613 C42.9832258,22.9780645 41.1045161,24.9909677 39.2258065,27.003871 C38.8851613,27.0141935 38.5548387,26.9212903 38.2245161,26.8593548 C36.2735484,26.4154839 34.5083871,25.2387097 33.3419355,23.6180645 C32.4129032,22.3483871 31.8658065,20.8 31.7625806,19.2309677 C31.7625806,18.6941935 31.7316129,18.1470968 31.8245161,17.6103226 C32.0516129,15.7212903 32.9806452,13.9354839 34.3535484,12.6348387 Z M19.2722581,10.6529032 C20.3354839,10.4877419 21.44,10.6529032 22.3896774,11.1690323 C23.9380645,11.9845161 25.0012903,13.7083871 24.9496774,15.483871 C24.9909677,17.2283871 23.9483871,18.9109677 22.4309677,19.7367742 C21.4812903,20.2529032 20.3664516,20.4387097 19.3032258,20.2632258 C18.2296774,20.0980645 17.2283871,19.5303226 16.4954839,18.7251613 C15.9174194,18.0954839 15.5251613,17.3109677 15.3393548,16.4748387 C15.1019355,15.3703226 15.2670968,14.1935484 15.7935484,13.1922581 C16.4748387,11.8606452 17.8064516,10.9109677 19.2722581,10.6529032 Z M8.64,37.6670968 C8.73290323,37.8322581 8.78451613,38.0283871 8.84645161,38.2141935 C9.03225806,38.7406452 9.20774194,39.2774194 9.38322581,39.8141935 C9.41419355,39.9174194 9.43483871,40.0206452 9.44516129,40.1341935 C8.9083871,40.123871 8.3716129,40.1135484 7.83483871,40.123871 C7.84516129,40.0206452 7.86580645,39.9277419 7.89677419,39.8348387 C8.14451613,39.1122581 8.35096774,38.3690323 8.64,37.6670968 Z M13.9458065,40.2477419 C14.0593548,40.4954839 14.1212903,40.763871 14.2141935,41.0219355 C14.4,41.6206452 14.6374194,42.2090323 14.8025806,42.8180645 C14.4516129,42.9522581 14.0696774,42.9625806 13.6980645,42.9419355 C13.4916129,42.9316129 13.2954839,42.9006452 13.0993548,42.8180645 C13.3574194,41.9509677 13.6774194,41.1045161 13.9458065,40.2477419 Z" id="Shape" fill="#F47E33"></path>
            <path d="M43.4477419,26.24 C43.9225806,25.7341935 44.3870968,25.2180645 44.8722581,24.7329032 C45.6774194,25.796129 46.4722581,26.8696774 47.2567742,27.9432258 C47.9174194,27.4787097 48.516129,26.9316129 49.1664516,26.4464516 C49.3625806,26.4154839 49.6619355,26.3535484 49.7858065,26.5703226 C51.1070968,28.3974194 52.4283871,30.2245161 53.76,32.0516129 C53.8012903,32.123871 53.8735484,32.1651613 53.956129,32.1341935 C54.5858065,32.0206452 55.2258065,31.9174194 55.8451613,31.803871 C56.1445161,31.7625806 56.443871,31.68 56.7432258,31.6593548 C56.9496774,31.7729032 57.0632258,32 57.2283871,32.1548387 C58.3845161,33.4658065 59.5303226,34.7767742 60.6864516,36.0774194 C60.8103226,36.2425806 60.9858065,36.3767742 61.0787097,36.5522581 C60.9651613,37.5122581 60.7483871,38.4516129 60.5212903,39.3806452 C59.4374194,43.6748387 57.3419355,47.7109677 54.4825806,51.0864516 C52.1703226,53.8116129 49.3832258,56.1135484 46.2658065,57.8374194 C46.08,57.9406452 45.8941935,58.0645161 45.6877419,58.1264516 C43.6954839,57.1974194 41.5380645,56.6916129 39.4012903,56.2270968 C36.923871,55.68 34.4258065,55.236129 31.9380645,54.6993548 C29.5535484,54.1316129 27.0967742,53.8425806 24.7225806,53.2129032 C24.3716129,53.0890323 24.0103226,53.0064516 23.6903226,52.8206452 C24.0619355,52.2941935 24.5574194,51.8709677 25.0529032,51.4580645 C25.4554839,51.1277419 25.8683871,50.8180645 26.2916129,50.5083871 C26.9522581,50.0335484 27.6541935,49.6103226 28.2735484,49.0735484 C28.9135484,48.516129 29.5122581,47.8658065 29.8632258,47.0812903 C30.1212903,46.5135484 30.1832258,45.8735484 30.0387097,45.2645161 C29.883871,44.6141935 29.4709677,44.0464516 28.9651613,43.6232258 C28.3148387,43.0658065 27.5303226,42.6941935 26.7354839,42.3845161 C24.5058065,41.5587097 22.1419355,41.2077419 19.7883871,40.8980645 C19.3651613,40.8567742 18.9316129,40.7845161 18.5083871,40.763871 C17.9096774,40.6709677 17.3212903,40.6606452 16.7225806,40.5883871 C16.7122581,40.5574194 16.6916129,40.5058065 16.6709677,40.4851613 C15.7522581,37.76 14.843871,35.0348387 13.8941935,32.3303226 C13.7806452,32.5470968 13.7290323,32.7845161 13.636129,33.0219355 C13.0477419,34.756129 12.4490323,36.5006452 11.8503226,38.2348387 C11.7780645,38.4206452 11.7367742,38.6270968 11.643871,38.8025806 C11.0554839,37.0064516 10.4567742,35.2206452 9.82709677,33.4348387 C9.45548387,32.2993548 9.12516129,31.1535484 8.76387097,30.0180645 C8.72258065,29.9148387 8.74322581,29.7703226 8.62967742,29.7083871 C8.61935484,29.7290323 8.5883871,29.7806452 8.57806452,29.8116129 C7.88645161,31.8451613 7.18451613,33.8787097 6.49290323,35.9122581 C6.0283871,37.2851613 5.55354839,38.6374194 5.15096774,40.0309677 C4.65548387,40.0516129 4.17032258,40.0516129 3.67483871,40.0206452 C3.34451613,38.7819355 3.07612903,37.5122581 2.88,36.2425806 C2.80774194,35.5716129 2.69419355,34.9006452 2.66322581,34.2193548 C3.42709677,34.24 4.18064516,34.1677419 4.94451613,34.1677419 C5.16129032,34.1574194 5.3883871,34.1780645 5.60516129,34.116129 C5.91483871,33.6206452 6.18322581,33.1045161 6.48258065,32.5987097 C7.81419355,30.2658065 9.14580645,27.9432258 10.4670968,25.6103226 C11.5406452,25.6103226 12.6245161,25.6103226 13.6980645,25.6103226 C13.7703226,25.6103226 13.8529032,25.6206452 13.8529032,25.7032258 C14.6374194,28.3045161 15.4322581,30.9058065 16.2167742,33.5070968 C16.4129032,34.0645161 16.5470968,34.6322581 16.7432258,35.1896774 C18.9832258,34.6425806 21.2025806,34.043871 23.4425806,33.476129 C23.5148387,33.4658065 23.5870968,33.4451613 23.6593548,33.4864516 C24.1548387,33.7445161 24.6296774,34.0232258 25.1251613,34.2812903 C25.0941935,34.3432258 25.0632258,34.4154839 25.0219355,34.4670968 C23.9587097,35.8090323 22.8954839,37.1509677 21.8425806,38.4929032 C22.2864516,38.8954839 22.7716129,39.2464516 23.236129,39.6283871 C23.4322581,39.7729032 23.6077419,39.9380645 23.8141935,40.0619355 C23.876129,40.0929032 23.9070968,40.0103226 23.9483871,39.9793548 C25.2593548,38.3070968 26.5703226,36.6451613 27.8812903,34.9832258 C28.9135484,33.6929032 29.9148387,32.3922581 30.9470968,31.1019355 C31.3187097,31.2877419 31.6490323,31.5458065 32.0309677,31.6696774 C33.1974194,32.0929032 34.3535484,32.5264516 35.5096774,32.9496774 C35.6645161,33.0116129 35.7987097,32.8877419 35.9329032,32.836129 C36.3870968,32.5987097 36.8309677,32.3406452 37.2954839,32.123871 C36.9135484,32.9083871 36.7070968,33.796129 36.8,34.6632258 C36.9445161,35.3651613 37.44,35.9329032 38.0180645,36.3148387 C38.8851613,36.8825806 39.9070968,37.1406452 40.9187097,37.316129 C41.6619355,37.4503226 42.3329032,37.9458065 42.6632258,38.6270968 C42.9006452,39.0709677 42.9316129,39.5870968 42.9212903,40.0929032 C42.9212903,41.3316129 42.9419355,42.5703226 42.9109677,43.8090323 C42.6632258,43.716129 42.4567742,43.5303226 42.2090323,43.4167742 C41.4245161,42.9522581 40.5058065,42.7870968 39.7109677,42.3225806 C39.163871,42.0129032 38.6477419,41.5896774 38.3380645,41.0322581 C38.2245161,40.8567742 38.1625806,40.6503226 38.08,40.4645161 C37.9045161,41.1045161 37.4812903,41.6516129 36.9445161,42.0232258 C36.5832258,42.2812903 36.1909677,42.4774194 35.7883871,42.6322581 C35.3548387,42.7870968 34.9006452,42.9006452 34.4877419,43.0967742 C33.156129,43.6851613 31.9483871,44.6554839 31.236129,45.9354839 C30.7716129,46.7716129 30.523871,47.7419355 30.6270968,48.7019355 C30.7406452,49.403871 31.236129,49.9716129 31.803871,50.3535484 C32.3096774,50.683871 32.8670968,50.9212903 33.4451613,51.0864516 C34.5909677,51.4167742 35.7883871,51.5509677 36.9858065,51.5922581 C37.76,51.6232258 38.5548387,51.6232258 39.3290323,51.5716129 C40.0516129,51.5612903 40.7535484,51.4580645 41.4658065,51.3548387 C42.4670968,51.1587097 43.4890323,50.88 44.3354839,50.2916129 C44.9341935,49.8787097 45.4090323,49.2283871 45.4503226,48.4851613 C45.4503226,46.7819355 45.44,45.0787097 45.4503226,43.3754839 C45.7393548,43.4064516 46.0077419,43.5303226 46.2864516,43.5922581 C46.7406452,43.6954839 47.236129,43.716129 47.6593548,43.9329032 C48.3096774,44.2322581 48.7845161,44.8412903 48.96,45.5225806 C49.0632258,45.8735484 49.0219355,46.2554839 49.0322581,46.6167742 C49.0322581,47.4012903 49.0322581,48.1858065 49.0322581,48.9703226 C49.0219355,49.403871 49.2283871,49.8374194 49.5793548,50.0954839 C49.8787097,50.3225806 50.2812903,50.3845161 50.6322581,50.2916129 C51.1690323,50.1470968 51.5922581,49.6309677 51.5922581,49.0735484 C51.6025806,48.0412903 51.5922581,47.0090323 51.5922581,45.9767742 C51.6335484,44.8929032 52.4903226,43.9225806 53.5432258,43.7367742 C54.596129,43.5509677 55.6593548,43.2929032 56.5574194,42.6941935 C57.1354839,42.3019355 57.6,41.723871 57.7135484,41.0322581 C57.7858065,40.443871 57.6929032,39.8554839 57.5277419,39.2877419 C57.0632258,37.7806452 55.9070968,36.5729032 54.5445161,35.8090323 C54.0490323,35.5303226 53.5019355,35.3341935 52.9651613,35.1483871 C52.4696774,34.9006452 52.0051613,34.5496774 51.643871,34.116129 C51.5096774,33.9819355 51.5509677,33.7754839 51.52,33.6 C51.2929032,32.1548387 50.4258065,30.8851613 49.2903226,30.0077419 C48.6709677,29.5329032 47.9896774,29.1509677 47.2567742,28.8825806 C46.5858065,28.6864516 45.9251613,28.4180645 45.3470968,28.0154839 C44.8206452,27.643871 44.3664516,27.1380645 44.1703226,26.5083871 C44.1496774,26.4154839 44.0877419,26.4980645 44.0877419,26.5496774 C43.84,27.3341935 43.2103226,27.9535484 42.4877419,28.3251613 C41.9922581,28.5935484 41.4554839,28.7690323 40.9290323,28.9548387 C41.0219355,28.8 41.156129,28.6864516 41.2696774,28.5522581 C42.0025806,27.7780645 42.7251613,27.0141935 43.4477419,26.24 Z M58.7870968,49.5793548 C59.2929032,48.8258065 59.7367742,48.0309677 60.2012903,47.2464516 C60.0670968,47.6490323 59.84,48.0206452 59.6541935,48.4129032 C58.2812903,51.003871 56.4129032,53.3367742 54.2141935,55.2670968 C53.8116129,55.5870968 53.4503226,55.9793548 52.996129,56.2477419 C53.6051613,55.6696774 54.2245161,55.1225806 54.8025806,54.523871 C56.2890323,53.0064516 57.6206452,51.3548387 58.7870968,49.5793548 Z" id="Shape" fill="#BFB5AF"></path>
            <path d="M42.9625806,30.9470968 C44.3664516,30.6993548 45.8735484,30.8748387 47.1329032,31.5767742 C47.8141935,31.9483871 48.4232258,32.4851613 48.7741935,33.1870968 C48.9187097,33.4658065 49.0116129,33.7858065 49.0219355,34.0954839 C48.96,34.1574194 48.8877419,34.1987097 48.8154839,34.24 C48.1858065,34.5187097 47.5148387,34.6425806 46.8335484,34.756129 C46.3070968,34.8490323 45.7703226,34.8593548 45.243871,34.9212903 C44.5212903,34.9419355 43.7987097,34.9419355 43.0864516,34.9212903 C42.1470968,34.8490323 41.2180645,34.7664516 40.3096774,34.5083871 C39.9587097,34.4154839 39.6077419,34.3019355 39.3083871,34.1058065 C39.3496774,33.403871 39.7316129,32.7535484 40.2374194,32.2787097 C40.9806452,31.5664516 41.9612903,31.1535484 42.9625806,30.9470968 Z M46.4412903,38.6580645 C47.5148387,37.6670968 49.0012903,37.2335484 50.436129,37.2541935 C51.6335484,37.2645161 52.8412903,37.6051613 53.8219355,38.3070968 C54.5135484,38.8025806 55.0916129,39.5354839 55.1948387,40.4129032 C55.236129,40.5470968 55.0916129,40.5987097 54.9987097,40.64 C54.5651613,40.836129 54.1006452,40.96 53.636129,41.0529032 C52.2425806,41.3522581 50.7974194,41.3729032 49.3729032,41.3316129 C48.0516129,41.2490323 46.6993548,41.1251613 45.4812903,40.5470968 C45.5122581,39.8141935 45.9251613,39.1535484 46.4412903,38.6580645 Z M37.4296774,44.9341935 C38.1316129,44.8929032 38.843871,44.9135484 39.5251613,45.0890323 C40.443871,45.3058065 41.3316129,45.7290323 42.0025806,46.4 C42.4567742,46.843871 42.7974194,47.4219355 42.8696774,48.0619355 C42.9212903,48.196129 42.7664516,48.2580645 42.6735484,48.2993548 C42.2090323,48.5058065 41.7135484,48.64 41.2077419,48.7329032 C40.4851613,48.8774194 39.7522581,48.9496774 39.0090323,49.0012903 C38.3483871,49.0116129 37.6877419,49.0116129 37.0270968,49.0012903 C36.4593548,48.9703226 35.8916129,48.9083871 35.323871,48.8154839 C34.6529032,48.7122581 33.9922581,48.5780645 33.3729032,48.3096774 C33.2696774,48.2580645 33.1251613,48.196129 33.1664516,48.0619355 C33.2593548,47.36 33.6619355,46.7303226 34.1780645,46.2658065 C35.0658065,45.4709677 36.2529032,45.0477419 37.4296774,44.9341935 Z" id="Shape" fill="#D8A780"></path>
        </g>
    </g>
</svg>