<?xml version="1.0" encoding="UTF-8"?>
<svg width="64px" height="64px" viewBox="0 0 64 64" version="1.1" xmlns="http://www.w3.org/2000/svg" xmlns:xlink="http://www.w3.org/1999/xlink">
    <!-- Generator: Sketch 52.6 (67491) - http://www.bohemiancoding.com/sketch -->
    <title>mkr</title>
    <desc>Created with Sketch.</desc>
    <g id="mkr" stroke="none" stroke-width="1" fill="none" fill-rule="evenodd">
        <g transform="translate(0.000000, 10.000000)" id="Group">
            <g transform="translate(0.000000, 0.068879)" fill="#1BBC9A">
                <path d="M0.805673759,0.204255319 C1.30496454,-0.0453900709 1.89503546,0.0113475177 2.33758865,0.340425532 L27.9148936,19.551773 C28.2780142,19.8241135 28.5049645,20.2666667 28.5049645,20.7205674 L28.5049645,42.6893617 C28.5049645,43.4950355 27.8468085,44.1531915 27.0411348,44.1531915 C26.235461,44.1531915 25.577305,43.4950355 25.577305,42.6893617 L25.577305,21.458156 L2.92765957,4.43687943 L2.92765957,42.6893617 C2.92765957,43.4950355 2.26950355,44.1531915 1.46382979,44.1531915 C0.658156028,44.164539 5.68434189e-14,43.506383 5.68434189e-14,42.7007092 L5.68434189e-14,1.50921986 C5.68434189e-14,0.953191489 0.317730496,0.442553191 0.805673759,0.204255319 Z" id="path0_fill"></path>
            </g>
            <g transform="translate(35.322553, 0.068879)" fill="#54697A">
                <path d="M27.7900709,0.204255319 C28.2893617,0.453900709 28.5957447,0.964539007 28.5957447,1.50921986 L28.5957447,42.7007092 C28.5957447,43.506383 27.9375887,44.164539 27.1319149,44.164539 C26.3262411,44.164539 25.6680851,43.506383 25.6680851,42.7007092 L25.6680851,4.43687943 L3.02978723,21.458156 L3.02978723,42.7007092 C3.02978723,43.506383 2.37163121,44.164539 1.56595745,44.164539 C0.760283688,44.164539 0.10212766,43.506383 0.10212766,42.7007092 L0.10212766,20.7319149 C0.10212766,20.2666667 0.317730496,19.835461 0.692198582,19.5631206 L26.2468085,0.340425532 C26.6893617,0.0113475177 27.2907801,-0.0453900709 27.7900709,0.204255319 Z" id="path1_fill"></path>
            </g>
        </g>
    </g>
</svg>