<?xml version="1.0" encoding="UTF-8"?>
<svg width="64px" height="64px" viewBox="0 0 64 64" version="1.1" xmlns="http://www.w3.org/2000/svg" xmlns:xlink="http://www.w3.org/1999/xlink">
    <!-- Generator: Sketch 52.6 (67491) - http://www.bohemiancoding.com/sketch -->
    <title>zrx</title>
    <desc>Created with Sketch.</desc>
    <g id="zrx" stroke="none" stroke-width="1" fill="none" fill-rule="evenodd">
        <g fill="#000000" fill-rule="nonzero" id="Shape">
            <path d="M29.5781733,0.134401764 C21.0062304,1.14955084 15.2078303,3.81028392 9.53969071,9.32981584 C7.36830768,11.4442547 7.39070205,11.401688 8.00281484,12.2447085 C10.3376768,15.4601746 14.5102456,20.9105821 14.6335391,20.9062385 C14.6760884,20.9046252 14.9067504,20.62155 15.1462457,20.2770446 C15.6503679,19.5519204 15.588659,19.6283669 16.6392038,18.4268175 C17.0839808,17.9182502 17.6406054,17.3332364 17.8762439,17.1268558 C18.1118824,16.9204753 18.4280163,16.6398821 18.5789295,16.5033706 C19.119007,16.0145354 19.4518122,15.7531779 20.0008476,15.3868307 C20.3074016,15.1821876 20.5899439,14.9722081 20.6286364,14.9199614 C20.7322726,14.7804715 23.149496,13.462391 23.2953083,13.4659899 C23.3637355,13.4676032 24.5666864,14.5784345 25.9686984,15.93449 L28.517551,18.4000116 L29.0644713,18.0100852 C29.9802766,17.3574362 47.1541461,5.06507273 47.5834957,4.75506754 C48.1290475,4.36129395 48.158409,4.39703515 46.6538806,3.62500061 C41.5508258,1.00621381 34.4587774,-0.44366234 29.5781733,0.134401796 M52.0347501,7.90724199 C48.508881,10.4509475 43.1373424,14.5439343 43.1419456,14.683176 C43.1435629,14.7287212 43.4253588,14.9614113 43.768366,15.2003064 C45.7260073,16.5635598 47.2294159,18.0641934 48.9174538,20.3400881 C49.5890361,21.2457798 50.6359728,23.2034787 50.5818533,23.4523019 C50.5597077,23.5533205 49.4780594,24.7325315 48.1779419,26.0727021 C46.8778243,27.4129967 45.765944,28.6090856 45.706972,28.730829 C45.6228686,28.9048191 45.9295473,29.384719 47.1450639,30.9804143 C47.9948057,32.0959615 49.5790829,34.1816089 50.6659563,35.6149795 C51.7528301,37.0483502 53.2383231,39.0029464 53.9673844,39.958527 C54.696321,40.9141073 56.1834317,42.8705652 57.2719225,44.3062937 C58.3602888,45.7417743 59.402249,47.1089987 59.5873759,47.344171 L59.9239136,47.7717 L60.7885852,45.9747125 C65.5239992,36.1337231 64.9732219,24.1363486 59.3870707,15.4485091 C57.696047,12.8185532 56.3489013,11.1510032 54.2990697,9.15036529 C52.6255884,7.51694324 52.5972219,7.50143057 52.0347501,7.90724199 M3.35473888,17.7819869 C2.04914708,20.4677884 1.34658592,22.4185376 0.784487236,24.9185595 C-0.640043546,31.2541819 -0.0352711397,38.7481664 2.32870349,44.0538716 C4.3064996,48.4927288 6.17419009,51.2872434 9.26224936,54.4276281 C11.5199751,56.7235032 11.2369352,56.6428372 12.867743,55.4577933 C16.4839361,52.8304435 20.8739792,49.4710199 20.8634041,49.3392242 C20.8601693,49.2991397 20.5771294,49.070669 20.2343711,48.8317738 C19.0193521,47.9849063 17.6248049,46.7606463 16.9122907,45.915392 C16.6246474,45.5741132 16.2351098,45.1273483 16.0467482,44.922581 C15.1596823,43.9583137 13.3138886,40.9433953 13.4285975,40.6461726 C13.449499,40.5920642 14.6331658,39.3445973 16.0588163,37.8742447 C17.4844668,36.4038916 18.6601713,35.1754125 18.6714929,35.1441387 C18.6828145,35.1128654 16.8444855,32.6743977 14.5863865,29.7252532 C12.3282875,26.7761086 9.23562494,22.7343756 7.71367863,20.7435416 C4.2194104,16.1726405 4.33461699,16.3172186 4.18917799,16.3172186 C4.12187047,16.3172186 3.74639154,16.9763209 3.35473888,17.7819869 M48.8622144,43.7678179 C47.8517307,45.2633635 46.3702185,46.8097906 44.5699602,48.2483733 C43.7622699,48.8938246 42.7468096,49.5526785 41.8106005,50.0384112 L40.6684874,50.6311192 L38.8246844,48.8302847 C36.4487661,46.5099616 35.3076486,45.4269289 35.1956766,45.3865961 C35.1464092,45.3687255 30.9931242,48.4221151 25.9658369,52.1718376 C20.9387984,55.9215601 16.6453,59.1194039 16.4248399,59.2780056 C15.8792881,59.6705379 15.850051,59.6350451 17.3544551,60.4072036 C29.7593188,66.7733551 44.4270093,64.5178129 54.4720042,54.69941 C56.7430423,52.4794851 56.6666523,52.6884716 55.6993399,51.3501626 C53.4101377,48.1825995 49.5254609,43.1231115 49.3827589,43.1234839 C49.3359797,43.1234839 49.1017098,43.4135085 48.8622144,43.7678179"></path>
        </g>
    </g>
</svg>